<svg width="516" height="184" viewBox="0 0 516 184" fill="none" xmlns="http://www.w3.org/2000/svg">
                <path d="M92.0668 2.168H92.5788C102.904 4.04533 108.067 9.03733 108.067 17.144V19.448C108.067 28.408 102.349 37.3253 90.9148 46.2V46.712C109.432 63.2667 122.232 71.544 129.315 71.544C130.595 72.4827 131.235 73.6347 131.235 75C131.235 76.9627 129.784 78.2 126.883 78.712C119.8 78.712 106.573 70.1787 87.2028 53.112L81.6988 50.168H81.3148C83.7042 59.7253 84.8988 67.1067 84.8988 72.312C84.8988 74.5307 83.5335 76.1093 80.8028 77.048C76.8775 77.048 74.4028 67.448 73.3788 48.248C70.6482 39.3733 69.2828 32.2907 69.2828 27V25.848C69.2828 18.0827 70.9895 14.2 74.4028 14.2L76.8348 15.48H77.6028C81.6988 6.60533 86.5202 2.168 92.0668 2.168ZM81.6988 36.344L81.3148 41.08C89.2508 41.08 95.6508 34.5093 100.515 21.368V16.632C100.515 12.8773 97.9548 10.616 92.8348 9.848H92.0668C86.6908 9.848 83.2348 18.68 81.6988 36.344ZM160.615 25.592C164.369 25.592 166.247 27.0853 166.247 30.072L165.095 32.504L164.327 55.928C164.327 66.5093 166.46 73.08 170.727 75.64L170.983 77.56C170.727 80.0347 169.575 81.272 167.527 81.272H166.759C160.359 76.92 157.159 70.264 157.159 61.304H156.263C152.849 70.8613 148.711 75.64 143.847 75.64C139.324 74.36 137.063 70.9893 137.063 65.528C137.063 53.496 141.884 41.5067 151.527 29.56C154.769 26.9147 157.799 25.592 160.615 25.592ZM145.127 60.408L144.615 63.992V66.424H145.895C152.295 50.4667 155.495 40.7387 155.495 37.24H154.983C150.033 42.7867 146.748 50.5093 145.127 60.408ZM194.022 17.4C198.032 17.4 200.806 21.6667 202.342 30.2V30.712C202.342 32.6747 201.019 33.8267 198.374 34.168C196.24 34.168 194.79 31.5227 194.022 26.232L193.51 25.848H191.974C190.096 28.5787 189.158 32.1627 189.158 36.6L189.542 43C192.955 43 196.667 42.104 200.678 40.312C202.299 40.312 203.792 41.464 205.158 43.768C205.158 47.2667 200.379 49.5707 190.822 50.68L194.022 71.544C194.022 73.336 192.528 74.488 189.542 75C186.896 75 185.574 70.904 185.574 62.712L183.142 51.832L174.822 53.112C173.03 53.112 171.963 51.7893 171.622 49.144C171.622 46.584 175.078 44.9627 181.99 44.28L181.478 36.344C182.843 23.7147 187.024 17.4 194.022 17.4ZM232.49 25.592C236.244 25.592 238.122 27.0853 238.122 30.072L236.97 32.504L236.202 55.928C236.202 66.5093 238.335 73.08 242.602 75.64L242.858 77.56C242.602 80.0347 241.45 81.272 239.402 81.272H238.634C232.234 76.92 229.034 70.264 229.034 61.304H228.138C224.724 70.8613 220.586 75.64 215.722 75.64C211.199 74.36 208.938 70.9893 208.938 65.528C208.938 53.496 213.759 41.5067 223.402 29.56C226.644 26.9147 229.674 25.592 232.49 25.592ZM217.002 60.408L216.49 63.992V66.424H217.77C224.17 50.4667 227.37 40.7387 227.37 37.24H226.858C221.908 42.7867 218.623 50.5093 217.002 60.408ZM257.449 29.048C260.862 29.1333 266.622 35.1067 274.729 46.968L274.985 49.144C274.985 51.5333 269.139 53.368 257.449 54.648L257.065 55.032V55.544C258.857 63.224 260.734 67.064 262.697 67.064H264.233C266.963 67.064 271.102 64.12 276.649 58.232H277.417C279.123 58.232 280.446 59.4693 281.385 61.944C281.385 63.992 277.801 67.5333 270.633 72.568C268.755 73.6773 266.494 74.488 263.849 75C256.937 75 252.115 68.5147 249.385 55.544C245.459 54.9467 243.497 53.3253 243.497 50.68C243.497 48.8027 244.947 47.5653 247.849 46.968V47.48L249.129 46.968V43.768C249.129 33.9547 251.902 29.048 257.449 29.048ZM258.217 38.264H257.065L256.553 43V46.968H257.065C261.843 46.7973 264.233 46.2853 264.233 45.432C262.014 42.104 260.009 39.7147 258.217 38.264ZM293.6 4.472C295.989 5.32533 297.184 6.648 297.184 8.43999L298.464 57.208V72.952C298.464 75.8533 297.226 77.304 294.752 77.304H293.088C291.552 76.28 290.784 75.0853 290.784 73.72V58.872L289.632 8.184C289.632 6.05066 290.954 4.81333 293.6 4.472ZM368.217 0.247993C380.249 0.247993 391.854 6.64799 403.033 19.448C406.446 26.1893 408.153 32.7173 408.153 39.032C408.153 53.88 400.601 64.8027 385.497 71.8C380.633 73.9333 375.385 75 369.753 75H366.553C363.395 74.9147 361.817 73.592 361.817 71.032H361.433C361.433 68.728 362.883 67.5333 365.785 67.448H368.729V66.68H368.985C363.694 44.2373 361.049 27.5547 361.049 16.632H360.665L357.465 18.68C355.246 18.68 353.923 17.1867 353.497 14.2C353.497 9.50666 356.142 5.41066 361.433 1.91199C363.566 0.802661 365.827 0.247993 368.217 0.247993ZM369.753 7.8H368.729V13.944C368.729 27.9387 371.374 45.5173 376.665 66.68H377.049C392.835 62.4133 400.729 53.1973 400.729 39.032C400.729 23.8427 391.897 13.688 374.233 8.56799C373.209 8.05599 371.715 7.8 369.753 7.8ZM437.115 25.592C440.869 25.592 442.747 27.0853 442.747 30.072L441.595 32.504L440.827 55.928C440.827 66.5093 442.96 73.08 447.227 75.64L447.483 77.56C447.227 80.0347 446.075 81.272 444.027 81.272H443.259C436.859 76.92 433.659 70.264 433.659 61.304H432.763C429.349 70.8613 425.211 75.64 420.347 75.64C415.824 74.36 413.563 70.9893 413.563 65.528C413.563 53.496 418.384 41.5067 428.027 29.56C431.269 26.9147 434.299 25.592 437.115 25.592ZM421.627 60.408L421.115 63.992V66.424H422.395C428.795 50.4667 431.995 40.7387 431.995 37.24H431.483C426.533 42.7867 423.248 50.5093 421.627 60.408ZM18.8098 110.568C24.6125 110.568 27.9832 114.749 28.9218 123.112C28.9218 130.024 27.3005 134.376 24.0578 136.168H23.2898C20.8152 135.997 19.5778 135.101 19.5778 133.48L20.0898 123.88V119.144L19.3218 118.248H18.0418C15.3112 118.248 12.1112 125.843 8.44183 141.032L7.67383 150.632V153.448C7.67383 162.323 11.6418 167.528 19.5778 169.064H24.9538C33.8285 169.064 44.5805 163.347 57.2098 151.912H57.7218C60.0258 151.912 61.3485 153.363 61.6898 156.264C59.7272 161.384 57.4232 163.944 54.7778 163.944C42.5752 172.648 31.6098 177 21.8818 177C12.1538 177 5.28449 171.667 1.27383 161L0.121826 151.912V150.248C0.121826 137.021 3.83383 124.861 11.2578 113.768C13.6472 111.635 16.1645 110.568 18.8098 110.568ZM87.0338 128.744C93.3485 128.744 98.1272 133.437 101.37 142.824L101.882 145.512C101.882 154.643 97.6152 163.987 89.0818 173.544C85.6685 176.701 82.2125 178.28 78.7138 178.28C73.5938 178.28 69.9672 175.336 67.8338 169.448C67.0658 166.717 66.6818 164.328 66.6818 162.28V160.744C66.6818 147.261 71.5885 137.021 81.4018 130.024C83.1085 129.171 84.9858 128.744 87.0338 128.744ZM74.2338 162.024C74.2338 167.827 75.7272 170.728 78.7138 170.728C84.9432 170.728 90.1058 162.749 94.2018 146.792V144.36C92.7512 139.069 90.0632 136.424 86.1378 136.424C84.6018 136.424 83.8338 137.491 83.8338 139.624C83.8338 141.075 82.1272 142.227 78.7138 143.08C75.7272 148.115 74.2338 154.429 74.2338 162.024ZM133.282 125.16C135.586 125.16 137.164 129.043 138.018 136.808C137.164 138.941 135.756 140.008 133.794 140.008C132.428 139.752 131.063 138.173 129.698 135.272L127.394 134.504C123.383 134.504 119.756 137.149 116.514 142.44V143.592C116.514 144.872 122.53 147.005 134.562 149.992C139.596 152.979 142.114 156.605 142.114 160.872C142.114 167.869 136.482 173.843 125.218 178.792L120.482 179.56C113.314 178.792 109.73 175.208 109.73 168.808V168.424C109.73 166.376 111.052 165.181 113.698 164.84C115.746 164.84 117.111 166.973 117.794 171.24L118.818 172.008H120.994C125.858 172.008 130.38 168.68 134.562 162.024V160.36C134.562 157.8 128.972 155.411 117.794 153.192C111.906 150.803 108.962 147.475 108.962 143.208C108.962 137.661 113.612 132.456 122.914 127.592C127.01 127.08 130.466 126.269 133.282 125.16ZM161.908 99.304C164.297 99.816 165.492 101.011 165.492 102.888L164.724 108.52V110.184C164.724 113.939 165.15 117.907 166.004 122.088H166.26C176.158 119.101 182.302 117.608 184.692 117.608C187.166 118.291 188.404 119.528 188.404 121.32C188.404 124.221 185.46 125.672 179.572 125.672L166.26 130.408C166.26 141.928 167.497 157.587 169.972 177.384C169.46 179.688 168.222 180.84 166.26 180.84H166.004C163.017 180.84 161.524 177 161.524 169.32C160.414 163.603 159.476 151.187 158.708 132.072H156.404C148.382 131.56 144.372 129.683 144.372 126.44C144.372 125.501 145.268 124.349 147.06 122.984H148.34L154.228 124.52H158.324L157.172 108.52C157.172 102.376 158.75 99.304 161.908 99.304ZM216.24 127.592C219.994 127.592 221.872 129.085 221.872 132.072L220.72 134.504L219.952 157.928C219.952 168.509 222.085 175.08 226.352 177.64L226.608 179.56C226.352 182.035 225.2 183.272 223.152 183.272H222.384C215.984 178.92 212.784 172.264 212.784 163.304H211.888C208.474 172.861 204.336 177.64 199.472 177.64C194.949 176.36 192.688 172.989 192.688 167.528C192.688 155.496 197.509 143.507 207.152 131.56C210.394 128.915 213.424 127.592 216.24 127.592ZM200.752 162.408L200.24 165.992V168.424H201.52C207.92 152.467 211.12 142.739 211.12 139.24H210.608C205.658 144.787 202.373 152.509 200.752 162.408ZM329.513 100.584C331.134 100.584 332.201 101.907 332.713 104.552C332.713 106.088 330.067 108.093 324.777 110.568C320.169 113.469 316.073 120.424 312.489 131.432C308.222 149.267 306.089 165.011 306.089 178.664C304.638 179.944 303.273 180.584 301.993 180.584C299.859 180.584 297.854 176.317 295.977 167.784C282.921 135.187 276.393 117.181 276.393 113.768C276.393 112.061 277.758 110.995 280.489 110.568C282.707 110.568 284.841 114.963 286.889 123.752L299.177 155.368H299.689C300.201 155.368 300.969 151.101 301.993 142.568C305.235 129.085 308.435 119.784 311.593 114.664C318.675 105.277 324.649 100.584 329.513 100.584ZM338.074 131.048C341.487 131.133 347.247 137.107 355.354 148.968L355.61 151.144C355.61 153.533 349.764 155.368 338.074 156.648L337.69 157.032V157.544C339.482 165.224 341.359 169.064 343.322 169.064H344.858C347.588 169.064 351.727 166.12 357.274 160.232H358.042C359.748 160.232 361.071 161.469 362.01 163.944C362.01 165.992 358.426 169.533 351.258 174.568C349.38 175.677 347.119 176.488 344.474 177C337.562 177 332.74 170.515 330.01 157.544C326.084 156.947 324.122 155.325 324.122 152.68C324.122 150.803 325.572 149.565 328.474 148.968V149.48L329.754 148.968V145.768C329.754 135.955 332.527 131.048 338.074 131.048ZM338.842 140.264H337.69L337.178 145V148.968H337.69C342.468 148.797 344.858 148.285 344.858 147.432C342.639 144.104 340.634 141.715 338.842 140.264ZM397.009 106.728C398.459 106.728 399.782 108.093 400.977 110.824L395.345 146.408V156.392C395.345 166.803 396.966 172.008 400.209 172.008C402.342 173.032 403.409 174.397 403.409 176.104C403.409 178.067 401.702 179.219 398.289 179.56C394.534 179.56 391.59 176.104 389.457 169.192H388.177C385.019 176.104 381.179 179.56 376.657 179.56C371.366 179.56 368.166 175.549 367.057 167.528C367.057 158.227 373.286 148.371 385.745 137.96C388.219 137.96 389.457 134.504 389.457 127.592C391.334 113.683 393.851 106.728 397.009 106.728ZM374.609 166.504V169.96L376.657 172.008H377.425C380.155 172.008 383.355 163.773 387.025 147.304H386.257C378.491 155.069 374.609 161.469 374.609 166.504ZM431.865 127.592C435.619 127.592 437.497 129.085 437.497 132.072L436.345 134.504L435.577 157.928C435.577 168.509 437.71 175.08 441.977 177.64L442.233 179.56C441.977 182.035 440.825 183.272 438.777 183.272H438.009C431.609 178.92 428.409 172.264 428.409 163.304H427.513C424.099 172.861 419.961 177.64 415.097 177.64C410.574 176.36 408.313 172.989 408.313 167.528C408.313 155.496 413.134 143.507 422.777 131.56C426.019 128.915 429.049 127.592 431.865 127.592ZM416.377 162.408L415.865 165.992V168.424H417.145C423.545 152.467 426.745 142.739 426.745 139.24H426.233C421.283 144.787 417.998 152.509 416.377 162.408ZM461.944 133.864C469.197 134.461 472.824 138.003 472.824 144.488L473.08 146.152L472.824 166.12C472.824 168.424 474.146 171.539 476.792 175.464V175.72C476.109 178.195 474.872 179.432 473.08 179.432C467.789 177.213 465.144 172.52 465.144 165.352V163.688L464.76 163.432L465.144 162.92V162.664L465.528 145C465.528 142.525 464.461 141.288 462.328 141.288H460.792C456.525 142.995 454.392 152.339 454.392 169.32C454.392 175.208 452.898 178.152 449.912 178.152C447.608 178.152 446.413 176.701 446.328 173.8V161C446.328 144.445 447.778 136.168 450.68 136.168L451.96 135.784L454.648 136.168C456.952 134.632 459.384 133.864 461.944 133.864ZM504.74 127.592C508.494 127.592 510.372 129.085 510.372 132.072L509.22 134.504L508.452 157.928C508.452 168.509 510.585 175.08 514.852 177.64L515.108 179.56C514.852 182.035 513.7 183.272 511.652 183.272H510.884C504.484 178.92 501.284 172.264 501.284 163.304H500.388C496.974 172.861 492.836 177.64 487.972 177.64C483.449 176.36 481.188 172.989 481.188 167.528C481.188 155.496 486.009 143.507 495.652 131.56C498.894 128.915 501.924 127.592 504.74 127.592ZM489.252 162.408L488.74 165.992V168.424H490.02C496.42 152.467 499.62 142.739 499.62 139.24H499.108C494.158 144.787 490.873 152.509 489.252 162.408Z" fill="white"/>
                </svg>