<svg width="515" height="184" viewBox="0 0 515 184" fill="none" xmlns="http://www.w3.org/2000/svg">
<path d="M24.3368 2.168H24.8488C35.1742 4.04533 40.3368 9.03733 40.3368 17.144V19.448C40.3368 28.408 34.6195 37.3253 23.1848 46.2V46.712C41.7022 63.2667 54.5022 71.544 61.5849 71.544C62.8648 72.4827 63.5048 73.6347 63.5048 75C63.5048 76.9627 62.0542 78.2 59.1528 78.712C52.0702 78.712 38.8435 70.1787 19.4728 53.112L13.9688 50.168H13.5848C15.9742 59.7253 17.1688 67.1067 17.1688 72.312C17.1688 74.5307 15.8035 76.1093 13.0728 77.048C9.14751 77.048 6.67285 67.448 5.64885 48.248C2.91818 39.3733 1.55285 32.2907 1.55285 27V25.848C1.55285 18.0827 3.25951 14.2 6.67285 14.2L9.10485 15.48H9.87285C13.9688 6.60533 18.7902 2.168 24.3368 2.168ZM13.9688 36.344L13.5848 41.08C21.5208 41.08 27.9208 34.5093 32.7848 21.368V16.632C32.7848 12.8773 30.2248 10.616 25.1048 9.848H24.3368C18.9608 9.848 15.5048 18.68 13.9688 36.344ZM92.8848 25.592C96.6395 25.592 98.5168 27.0853 98.5168 30.072L97.3648 32.504L96.5968 55.928C96.5968 66.5093 98.7302 73.08 102.997 75.64L103.253 77.56C102.997 80.0347 101.845 81.272 99.7968 81.272H99.0288C92.6288 76.92 89.4288 70.264 89.4288 61.304H88.5328C85.1195 70.8613 80.9808 75.64 76.1168 75.64C71.5942 74.36 69.3328 70.9893 69.3328 65.528C69.3328 53.496 74.1542 41.5067 83.7968 29.56C87.0395 26.9147 90.0688 25.592 92.8848 25.592ZM77.3968 60.408L76.8848 63.992V66.424H78.1648C84.5648 50.4667 87.7648 40.7387 87.7648 37.24H87.2528C82.3035 42.7867 79.0182 50.5093 77.3968 60.408ZM126.292 17.4C130.303 17.4 133.076 21.6667 134.612 30.2V30.712C134.612 32.6747 133.289 33.8267 130.644 34.168C128.511 34.168 127.06 31.5227 126.292 26.232L125.78 25.848H124.244C122.367 28.5787 121.428 32.1627 121.428 36.6L121.812 43C125.225 43 128.937 42.104 132.948 40.312C134.569 40.312 136.063 41.464 137.428 43.768C137.428 47.2667 132.649 49.5707 123.092 50.68L126.292 71.544C126.292 73.336 124.799 74.488 121.812 75C119.167 75 117.844 70.904 117.844 62.712L115.412 51.832L107.092 53.112C105.3 53.112 104.233 51.7893 103.892 49.144C103.892 46.584 107.348 44.9627 114.26 44.28L113.748 36.344C115.113 23.7147 119.295 17.4 126.292 17.4ZM164.76 25.592C168.515 25.592 170.392 27.0853 170.392 30.072L169.24 32.504L168.472 55.928C168.472 66.5093 170.605 73.08 174.872 75.64L175.128 77.56C174.872 80.0347 173.72 81.272 171.672 81.272H170.904C164.504 76.92 161.304 70.264 161.304 61.304H160.408C156.995 70.8613 152.856 75.64 147.992 75.64C143.469 74.36 141.208 70.9893 141.208 65.528C141.208 53.496 146.029 41.5067 155.672 29.56C158.915 26.9147 161.944 25.592 164.76 25.592ZM149.272 60.408L148.76 63.992V66.424H150.04C156.44 50.4667 159.64 40.7387 159.64 37.24H159.128C154.179 42.7867 150.893 50.5093 149.272 60.408ZM189.719 29.048C193.132 29.1333 198.892 35.1067 206.999 46.968L207.255 49.144C207.255 51.5333 201.41 53.368 189.719 54.648L189.335 55.032V55.544C191.127 63.224 193.004 67.064 194.967 67.064H196.503C199.234 67.064 203.372 64.12 208.919 58.232H209.687C211.394 58.232 212.716 59.4693 213.655 61.944C213.655 63.992 210.071 67.5333 202.903 72.568C201.026 73.6773 198.764 74.488 196.119 75C189.207 75 184.386 68.5147 181.655 55.544C177.73 54.9467 175.767 53.3253 175.767 50.68C175.767 48.8027 177.218 47.5653 180.119 46.968V47.48L181.399 46.968V43.768C181.399 33.9547 184.172 29.048 189.719 29.048ZM190.487 38.264H189.335L188.823 43V46.968H189.335C194.114 46.7973 196.503 46.2853 196.503 45.432C194.284 42.104 192.279 39.7147 190.487 38.264ZM225.87 4.472C228.259 5.32533 229.454 6.648 229.454 8.43999L230.734 57.208V72.952C230.734 75.8533 229.497 77.304 227.022 77.304H225.358C223.822 76.28 223.054 75.0853 223.054 73.72V58.872L221.902 8.184C221.902 6.05066 223.225 4.81333 225.87 4.472ZM300.487 0.247993C312.519 0.247993 324.124 6.64799 335.303 19.448C338.716 26.1893 340.423 32.7173 340.423 39.032C340.423 53.88 332.871 64.8027 317.767 71.8C312.903 73.9333 307.655 75 302.023 75H298.823C295.666 74.9147 294.087 73.592 294.087 71.032H293.703C293.703 68.728 295.154 67.5333 298.055 67.448H300.999V66.68H301.255C295.964 44.2373 293.319 27.5547 293.319 16.632H292.935L289.735 18.68C287.516 18.68 286.194 17.1867 285.767 14.2C285.767 9.50666 288.412 5.41066 293.703 1.91199C295.836 0.802661 298.098 0.247993 300.487 0.247993ZM302.023 7.8H300.999V13.944C300.999 27.9387 303.644 45.5173 308.935 66.68H309.319C325.106 62.4133 332.999 53.1973 332.999 39.032C332.999 23.8427 324.167 13.688 306.503 8.56799C305.479 8.05599 303.986 7.8 302.023 7.8ZM369.385 25.592C373.14 25.592 375.017 27.0853 375.017 30.072L373.865 32.504L373.097 55.928C373.097 66.5093 375.23 73.08 379.497 75.64L379.753 77.56C379.497 80.0347 378.345 81.272 376.297 81.272H375.529C369.129 76.92 365.929 70.264 365.929 61.304H365.033C361.62 70.8613 357.481 75.64 352.617 75.64C348.094 74.36 345.833 70.9893 345.833 65.528C345.833 53.496 350.654 41.5067 360.297 29.56C363.54 26.9147 366.569 25.592 369.385 25.592ZM353.897 60.408L353.385 63.992V66.424H354.665C361.065 50.4667 364.265 40.7387 364.265 37.24H363.753C358.804 42.7867 355.518 50.5093 353.897 60.408ZM18.7048 110.568C24.5075 110.568 27.8782 114.749 28.8168 123.112C28.8168 130.024 27.1955 134.376 23.9528 136.168H23.1848C20.7102 135.997 19.4728 135.101 19.4728 133.48L19.9848 123.88V119.144L19.2168 118.248H17.9368C15.2062 118.248 12.0062 125.843 8.33685 141.032L7.56885 150.632V153.448C7.56885 162.323 11.5368 167.528 19.4728 169.064H24.8488C33.7235 169.064 44.4755 163.347 57.1048 151.912H57.6168C59.9208 151.912 61.2435 153.363 61.5849 156.264C59.6222 161.384 57.3182 163.944 54.6728 163.944C42.4702 172.648 31.5048 177 21.7768 177C12.0488 177 5.17951 171.667 1.16885 161L0.0168457 151.912V150.248C0.0168457 137.021 3.72885 124.861 11.1528 113.768C13.5422 111.635 16.0595 110.568 18.7048 110.568ZM86.9288 128.744C93.2435 128.744 98.0222 133.437 101.265 142.824L101.777 145.512C101.777 154.643 97.5102 163.987 88.9768 173.544C85.5635 176.701 82.1075 178.28 78.6088 178.28C73.4888 178.28 69.8622 175.336 67.7288 169.448C66.9608 166.717 66.5768 164.328 66.5768 162.28V160.744C66.5768 147.261 71.4835 137.021 81.2968 130.024C83.0035 129.171 84.8808 128.744 86.9288 128.744ZM74.1288 162.024C74.1288 167.827 75.6222 170.728 78.6088 170.728C84.8382 170.728 90.0008 162.749 94.0968 146.792V144.36C92.6462 139.069 89.9582 136.424 86.0328 136.424C84.4968 136.424 83.7288 137.491 83.7288 139.624C83.7288 141.075 82.0222 142.227 78.6088 143.08C75.6222 148.115 74.1288 154.429 74.1288 162.024ZM133.177 125.16C135.481 125.16 137.06 129.043 137.913 136.808C137.06 138.941 135.652 140.008 133.689 140.008C132.324 139.752 130.958 138.173 129.593 135.272L127.289 134.504C123.278 134.504 119.652 137.149 116.409 142.44V143.592C116.409 144.872 122.425 147.005 134.457 149.992C139.492 152.979 142.009 156.605 142.009 160.872C142.009 167.869 136.377 173.843 125.113 178.792L120.377 179.56C113.209 178.792 109.625 175.208 109.625 168.808V168.424C109.625 166.376 110.948 165.181 113.593 164.84C115.641 164.84 117.006 166.973 117.689 171.24L118.713 172.008H120.889C125.753 172.008 130.276 168.68 134.457 162.024V160.36C134.457 157.8 128.868 155.411 117.689 153.192C111.801 150.803 108.857 147.475 108.857 143.208C108.857 137.661 113.508 132.456 122.809 127.592C126.905 127.08 130.361 126.269 133.177 125.16ZM161.803 99.304C164.192 99.816 165.387 101.011 165.387 102.888L164.619 108.52V110.184C164.619 113.939 165.046 117.907 165.899 122.088H166.155C176.054 119.101 182.198 117.608 184.587 117.608C187.062 118.291 188.299 119.528 188.299 121.32C188.299 124.221 185.355 125.672 179.467 125.672L166.155 130.408C166.155 141.928 167.392 157.587 169.867 177.384C169.355 179.688 168.118 180.84 166.155 180.84H165.899C162.912 180.84 161.419 177 161.419 169.32C160.31 163.603 159.371 151.187 158.603 132.072H156.299C148.278 131.56 144.267 129.683 144.267 126.44C144.267 125.501 145.163 124.349 146.955 122.984H148.235L154.123 124.52H158.219L157.067 108.52C157.067 102.376 158.646 99.304 161.803 99.304ZM216.135 127.592C219.89 127.592 221.767 129.085 221.767 132.072L220.615 134.504L219.847 157.928C219.847 168.509 221.98 175.08 226.247 177.64L226.503 179.56C226.247 182.035 225.095 183.272 223.047 183.272H222.279C215.879 178.92 212.679 172.264 212.679 163.304H211.783C208.37 172.861 204.231 177.64 199.367 177.64C194.844 176.36 192.583 172.989 192.583 167.528C192.583 155.496 197.404 143.507 207.047 131.56C210.29 128.915 213.319 127.592 216.135 127.592ZM200.647 162.408L200.135 165.992V168.424H201.415C207.815 152.467 211.015 142.739 211.015 139.24H210.503C205.554 144.787 202.268 152.509 200.647 162.408ZM329.408 100.584C331.029 100.584 332.096 101.907 332.608 104.552C332.608 106.088 329.963 108.093 324.672 110.568C320.064 113.469 315.968 120.424 312.384 131.432C308.117 149.267 305.984 165.011 305.984 178.664C304.533 179.944 303.168 180.584 301.888 180.584C299.755 180.584 297.749 176.317 295.872 167.784C282.816 135.187 276.288 117.181 276.288 113.768C276.288 112.061 277.653 110.995 280.384 110.568C282.603 110.568 284.736 114.963 286.784 123.752L299.072 155.368H299.584C300.096 155.368 300.864 151.101 301.888 142.568C305.131 129.085 308.331 119.784 311.488 114.664C318.571 105.277 324.544 100.584 329.408 100.584ZM337.969 131.048C341.382 131.133 347.142 137.107 355.249 148.968L355.505 151.144C355.505 153.533 349.66 155.368 337.969 156.648L337.585 157.032V157.544C339.377 165.224 341.254 169.064 343.217 169.064H344.753C347.484 169.064 351.622 166.12 357.169 160.232H357.937C359.644 160.232 360.966 161.469 361.905 163.944C361.905 165.992 358.321 169.533 351.153 174.568C349.276 175.677 347.014 176.488 344.369 177C337.457 177 332.636 170.515 329.905 157.544C325.98 156.947 324.017 155.325 324.017 152.68C324.017 150.803 325.468 149.565 328.369 148.968V149.48L329.649 148.968V145.768C329.649 135.955 332.422 131.048 337.969 131.048ZM338.737 140.264H337.585L337.073 145V148.968H337.585C342.364 148.797 344.753 148.285 344.753 147.432C342.534 144.104 340.529 141.715 338.737 140.264ZM396.904 106.728C398.355 106.728 399.677 108.093 400.872 110.824L395.24 146.408V156.392C395.24 166.803 396.861 172.008 400.104 172.008C402.237 173.032 403.304 174.397 403.304 176.104C403.304 178.067 401.597 179.219 398.184 179.56C394.429 179.56 391.485 176.104 389.352 169.192H388.072C384.915 176.104 381.075 179.56 376.552 179.56C371.261 179.56 368.061 175.549 366.952 167.528C366.952 158.227 373.181 148.371 385.64 137.96C388.115 137.96 389.352 134.504 389.352 127.592C391.229 113.683 393.747 106.728 396.904 106.728ZM374.504 166.504V169.96L376.552 172.008H377.32C380.051 172.008 383.251 163.773 386.92 147.304H386.152C378.387 155.069 374.504 161.469 374.504 166.504ZM431.76 127.592C435.515 127.592 437.392 129.085 437.392 132.072L436.24 134.504L435.472 157.928C435.472 168.509 437.605 175.08 441.872 177.64L442.128 179.56C441.872 182.035 440.72 183.272 438.672 183.272H437.904C431.504 178.92 428.304 172.264 428.304 163.304H427.408C423.995 172.861 419.856 177.64 414.992 177.64C410.469 176.36 408.208 172.989 408.208 167.528C408.208 155.496 413.029 143.507 422.672 131.56C425.915 128.915 428.944 127.592 431.76 127.592ZM416.272 162.408L415.76 165.992V168.424H417.04C423.44 152.467 426.64 142.739 426.64 139.24H426.128C421.179 144.787 417.893 152.509 416.272 162.408ZM461.839 133.864C469.092 134.461 472.719 138.003 472.719 144.488L472.975 146.152L472.719 166.12C472.719 168.424 474.042 171.539 476.687 175.464V175.72C476.004 178.195 474.767 179.432 472.975 179.432C467.684 177.213 465.039 172.52 465.039 165.352V163.688L464.655 163.432L465.039 162.92V162.664L465.423 145C465.423 142.525 464.356 141.288 462.223 141.288H460.687C456.42 142.995 454.287 152.339 454.287 169.32C454.287 175.208 452.794 178.152 449.807 178.152C447.503 178.152 446.308 176.701 446.223 173.8V161C446.223 144.445 447.674 136.168 450.575 136.168L451.855 135.784L454.543 136.168C456.847 134.632 459.279 133.864 461.839 133.864ZM504.635 127.592C508.39 127.592 510.267 129.085 510.267 132.072L509.115 134.504L508.347 157.928C508.347 168.509 510.48 175.08 514.747 177.64L515.003 179.56C514.747 182.035 513.595 183.272 511.547 183.272H510.779C504.379 178.92 501.179 172.264 501.179 163.304H500.283C496.87 172.861 492.731 177.64 487.867 177.64C483.344 176.36 481.083 172.989 481.083 167.528C481.083 155.496 485.904 143.507 495.547 131.56C498.79 128.915 501.819 127.592 504.635 127.592ZM489.147 162.408L488.635 165.992V168.424H489.915C496.315 152.467 499.515 142.739 499.515 139.24H499.003C494.054 144.787 490.768 152.509 489.147 162.408Z" fill="white"/>
</svg>
