<svg width="56" height="56" viewBox="0 0 56 56" fill="none" xmlns="http://www.w3.org/2000/svg">
<g filter="url(#filter0_f_209_233)">
<circle cx="28" cy="28" r="20" fill="#83CD29"/>
</g>
<g filter="url(#filter1_d_209_233)">
<path d="M40.1695 19.5835L29.1338 13.1823C28.4385 12.7863 27.5277 12.7863 26.827 13.1823L15.705 19.5835C14.9877 19.9963 14.5 20.772 14.5 21.6018V34.3873C14.5 35.217 14.998 35.993 15.7155 36.408L18.6477 38.08C20.0545 38.773 20.4443 38.773 21.0843 38.773C23.1678 38.773 24.2498 37.5133 24.2498 35.316V22.6935C24.25 22.5153 24.3612 22.25 24.186 22.25H22.7805C22.6025 22.25 22.25 22.5153 22.25 22.6933V35.3158C22.25 36.2898 21.346 37.259 19.6995 36.4358L16.669 34.6825C16.5635 34.625 16.5 34.5093 16.5 34.3873V21.6018C16.5 21.4813 16.6158 21.3603 16.7228 21.2985L27.8173 14.9083C27.8717 14.8793 27.9325 14.8642 27.9941 14.8642C28.0558 14.8642 28.1165 14.8793 28.171 14.9083L39.1618 21.297C39.267 21.3603 39.2502 21.4775 39.2502 21.6018V34.3873C39.2502 34.5093 39.2733 34.628 39.1695 34.6868L28.1362 41.0808C28.0417 41.1375 27.9187 41.1375 27.815 41.0808L24.9858 39.3935C24.9005 39.344 24.7977 39.3263 24.7157 39.372C23.9295 39.8178 23.7835 39.877 23.046 40.1328C22.8642 40.196 22.5962 40.3058 23.148 40.615L26.8475 42.8035C27.2007 43.0076 27.6014 43.115 28.0093 43.115C28.4187 43.1157 28.8211 43.0082 29.1758 42.8035L40.1698 36.408C40.8875 35.99 41.2502 35.217 41.2502 34.3873V21.6018C41.25 20.772 40.8873 19.9983 40.1695 19.5835V19.5835ZM31.4317 32.3613C28.5 32.3613 27.8545 31.5525 27.6392 30.0948C27.6137 29.9378 27.4808 29.75 27.3208 29.75H25.8883C25.711 29.75 25.5682 29.965 25.5682 30.1415C25.5682 32.008 26.5832 34.2695 31.4317 34.2695C34.9412 34.2695 36.9538 32.9058 36.9538 30.4923C36.9538 28.0993 35.337 27.4713 31.9333 27.0208C28.4928 26.566 28.1432 26.3363 28.1432 25.5303C28.1432 24.8658 28.4392 23.9795 30.9867 23.9795C33.2627 23.9795 34.1018 24.468 34.447 26.0023C34.4768 26.1465 34.6085 26.25 34.7572 26.25H36.1957C36.2842 26.25 36.3685 26.2143 36.4305 26.151C36.4908 26.083 36.5222 25.9978 36.5145 25.9063C36.2912 23.264 34.5362 22.0328 30.9865 22.0328C27.8285 22.0328 25.945 23.3663 25.945 25.6015C25.945 28.026 27.8193 28.696 30.8505 28.9958C34.4768 29.3513 34.7588 29.8813 34.7588 30.5945C34.7588 31.8335 33.7642 32.3613 31.4317 32.3613Z" fill="#83CD29"/>
</g>
<path fill-rule="evenodd" clip-rule="evenodd" d="M32.2346 23.8828V20.8847C32.2351 20.1015 31.9387 19.3518 31.4136 18.808C30.8886 18.2642 30.18 17.9732 29.4509 18.0019H26.5151C25.786 17.9732 25.0774 18.2642 24.5523 18.808C24.0272 19.3518 23.7309 20.1015 23.7314 20.8847V23.8828C21.8796 24.5868 20.7533 26.602 21.0461 28.6874L21.8964 34.2319C22.3052 36.461 24.1488 38.0509 26.2644 37.9988H29.7373C31.853 38.0509 33.6966 36.461 34.1053 34.2319L34.9557 28.6874C35.2441 26.5915 34.1006 24.5724 32.2346 23.8828ZM28.8781 31.3876L29.066 31.9834C29.1484 32.2561 29.1054 32.5546 28.95 32.7877C28.7946 33.0209 28.5454 33.161 28.2784 33.1653H27.616C27.349 33.161 27.0997 33.0209 26.9444 32.7877C26.789 32.5546 26.7459 32.2561 26.8283 31.9834L27.0163 31.3876C27.1176 31.051 27.0386 30.6819 26.8104 30.4267C26.3032 29.7798 26.3544 28.8204 26.927 28.2398C27.4996 27.6592 28.3947 27.6592 28.9674 28.2398C29.54 28.8204 29.5911 29.7798 29.0839 30.4267C28.8558 30.6819 28.7767 31.051 28.8781 31.3876ZM25.074 23.5561H25.3962V23.5657H30.892V20.8847C30.8581 20.0657 30.214 19.43 29.4509 19.4625H26.5151C25.752 19.43 25.1079 20.0657 25.074 20.8847V23.5561Z" fill="black" fill-opacity="0.7"/>
<defs>
<filter id="filter0_f_209_233" x="0" y="0" width="56" height="56" filterUnits="userSpaceOnUse" color-interpolation-filters="sRGB">
<feFlood flood-opacity="0" result="BackgroundImageFix"/>
<feBlend mode="normal" in="SourceGraphic" in2="BackgroundImageFix" result="shape"/>
<feGaussianBlur stdDeviation="4" result="effect1_foregroundBlur_209_233"/>
</filter>
<filter id="filter1_d_209_233" x="10" y="10" width="36" height="36" filterUnits="userSpaceOnUse" color-interpolation-filters="sRGB">
<feFlood flood-opacity="0" result="BackgroundImageFix"/>
<feColorMatrix in="SourceAlpha" type="matrix" values="0 0 0 0 0 0 0 0 0 0 0 0 0 0 0 0 0 0 127 0" result="hardAlpha"/>
<feOffset/>
<feGaussianBlur stdDeviation="1"/>
<feComposite in2="hardAlpha" operator="out"/>
<feColorMatrix type="matrix" values="0 0 0 0 0 0 0 0 0 0 0 0 0 0 0 0 0 0 1 0"/>
<feBlend mode="normal" in2="BackgroundImageFix" result="effect1_dropShadow_209_233"/>
<feBlend mode="normal" in="SourceGraphic" in2="effect1_dropShadow_209_233" result="shape"/>
</filter>
</defs>
</svg>
