<svg width="56" height="56" viewBox="0 0 56 56" fill="none" xmlns="http://www.w3.org/2000/svg">
<g filter="url(#filter0_f_209_235)">
<circle cx="28" cy="28" r="20" fill="#007ACC"/>
</g>
<g filter="url(#filter1_d_209_235)">
<path d="M16 20C16 17.7909 17.7909 16 20 16H36C38.2091 16 40 17.7909 40 20V36C40 38.2091 38.2091 40 36 40H20C17.7909 40 16 38.2091 16 36V20Z" fill="#007ACC"/>
</g>
<path d="M27.0726 22.848V24.032H24.0326V34H22.5766V24.032H19.5206V22.848H27.0726ZM32.4008 34.112C31.6648 34.112 31.0035 33.984 30.4168 33.728C29.8408 33.4613 29.3875 33.0987 29.0568 32.64C28.7261 32.1707 28.5555 31.632 28.5448 31.024H30.0968C30.1501 31.5467 30.3635 31.9893 30.7368 32.352C31.1208 32.704 31.6755 32.88 32.4008 32.88C33.0941 32.88 33.6381 32.7093 34.0328 32.368C34.4381 32.016 34.6408 31.568 34.6408 31.024C34.6408 30.5973 34.5235 30.2507 34.2888 29.984C34.0541 29.7173 33.7608 29.5147 33.4088 29.376C33.0568 29.2373 32.5821 29.088 31.9848 28.928C31.2488 28.736 30.6568 28.544 30.2088 28.352C29.7715 28.16 29.3928 27.8613 29.0728 27.456C28.7635 27.04 28.6088 26.4853 28.6088 25.792C28.6088 25.184 28.7635 24.6453 29.0728 24.176C29.3821 23.7067 29.8141 23.344 30.3688 23.088C30.9341 22.832 31.5795 22.704 32.3048 22.704C33.3501 22.704 34.2035 22.9653 34.8648 23.488C35.5368 24.0107 35.9155 24.704 36.0008 25.568H34.4008C34.3475 25.1413 34.1235 24.768 33.7288 24.448C33.3341 24.1173 32.8115 23.952 32.1608 23.952C31.5528 23.952 31.0568 24.112 30.6728 24.432C30.2888 24.7413 30.0968 25.1787 30.0968 25.744C30.0968 26.1493 30.2088 26.48 30.4328 26.736C30.6675 26.992 30.9501 27.1893 31.2808 27.328C31.6221 27.456 32.0968 27.6053 32.7048 27.776C33.4408 27.9787 34.0328 28.1813 34.4808 28.384C34.9288 28.576 35.3128 28.88 35.6328 29.296C35.9528 29.7013 36.1128 30.256 36.1128 30.96C36.1128 31.504 35.9688 32.016 35.6808 32.496C35.3928 32.976 34.9661 33.3653 34.4008 33.664C33.8355 33.9627 33.1688 34.112 32.4008 34.112Z" fill="white"/>
<path fill-rule="evenodd" clip-rule="evenodd" d="M32.2346 23.8828V20.8847C32.2351 20.1015 31.9387 19.3518 31.4136 18.808C30.8886 18.2642 30.18 17.9732 29.4509 18.0019H26.5151C25.786 17.9732 25.0774 18.2642 24.5523 18.808C24.0272 19.3518 23.7309 20.1015 23.7314 20.8847V23.8828C21.8796 24.5868 20.7533 26.602 21.0461 28.6874L21.8964 34.2319C22.3052 36.461 24.1488 38.0509 26.2644 37.9988H29.7373C31.853 38.0509 33.6966 36.461 34.1053 34.2319L34.9557 28.6874C35.2441 26.5915 34.1006 24.5724 32.2346 23.8828ZM28.8781 31.3876L29.066 31.9834C29.1484 32.2561 29.1054 32.5546 28.95 32.7877C28.7946 33.0209 28.5454 33.161 28.2784 33.1653H27.616C27.349 33.161 27.0997 33.0209 26.9444 32.7877C26.789 32.5546 26.7459 32.2561 26.8283 31.9834L27.0163 31.3876C27.1176 31.051 27.0386 30.6819 26.8104 30.4267C26.3032 29.7798 26.3544 28.8204 26.927 28.2398C27.4996 27.6592 28.3947 27.6592 28.9674 28.2398C29.54 28.8204 29.5911 29.7798 29.0839 30.4267C28.8558 30.6819 28.7767 31.051 28.8781 31.3876ZM25.074 23.5561H25.3962V23.5657H30.892V20.8847C30.8581 20.0657 30.214 19.43 29.4509 19.4625H26.5151C25.752 19.43 25.1079 20.0657 25.074 20.8847V23.5561Z" fill="black" fill-opacity="0.7"/>
<defs>
<filter id="filter0_f_209_235" x="0" y="0" width="56" height="56" filterUnits="userSpaceOnUse" color-interpolation-filters="sRGB">
<feFlood flood-opacity="0" result="BackgroundImageFix"/>
<feBlend mode="normal" in="SourceGraphic" in2="BackgroundImageFix" result="shape"/>
<feGaussianBlur stdDeviation="4" result="effect1_foregroundBlur_209_235"/>
</filter>
<filter id="filter1_d_209_235" x="12" y="12" width="32" height="32" filterUnits="userSpaceOnUse" color-interpolation-filters="sRGB">
<feFlood flood-opacity="0" result="BackgroundImageFix"/>
<feColorMatrix in="SourceAlpha" type="matrix" values="0 0 0 0 0 0 0 0 0 0 0 0 0 0 0 0 0 0 127 0" result="hardAlpha"/>
<feOffset/>
<feGaussianBlur stdDeviation="2"/>
<feComposite in2="hardAlpha" operator="out"/>
<feColorMatrix type="matrix" values="0 0 0 0 0 0 0 0 0 0 0 0 0 0 0 0 0 0 1 0"/>
<feBlend mode="normal" in2="BackgroundImageFix" result="effect1_dropShadow_209_235"/>
<feBlend mode="normal" in="SourceGraphic" in2="effect1_dropShadow_209_235" result="shape"/>
</filter>
</defs>
</svg>
