<svg width="48" height="48" viewBox="0 0 48 48" fill="none" xmlns="http://www.w3.org/2000/svg">
<path fill-rule="evenodd" clip-rule="evenodd" d="M0 24C0 10.7452 10.7452 0 24 0C37.2548 0 48 10.7452 48 24C48 37.2548 37.2548 48 24 48C10.7452 48 0 37.2548 0 24ZM12 24.2513C12 17.6458 17.3578 12.288 23.9633 12.288C30.5688 12.288 35.9266 17.6458 36 24.2513C36 29.5357 32.6238 34.0128 27.8532 35.6274C27.2661 35.7008 27.0459 35.3339 27.0459 35.0403V31.7375C27.0459 30.6366 26.6789 29.9027 26.2386 29.5357C28.8808 29.2421 31.6697 28.288 31.6697 23.6642C31.6697 22.3431 31.1559 21.2421 30.4221 20.4348C30.4278 20.4117 30.4359 20.3828 30.4455 20.3482C30.5578 19.9429 30.8839 18.7667 30.2752 17.2788C30.2752 17.2788 29.2477 16.9853 26.9724 18.5265C26.0184 18.3064 24.9908 18.1596 23.9633 18.1596C22.9358 18.1596 21.9083 18.233 20.9541 18.5265C18.6789 16.9853 17.6514 17.2788 17.6514 17.2788C17.0027 18.8645 17.4157 20.0962 17.5003 20.3485L17.5046 20.3614C16.6972 21.2421 16.2568 22.2697 16.2568 23.5908C16.2568 28.2146 19.0459 29.2421 21.6881 29.5357C21.3945 29.8293 21.0276 30.343 20.9541 31.1504C20.2936 31.444 18.6055 31.9577 17.5046 30.1229C17.5046 30.1229 16.8441 28.9486 15.6697 28.8752C15.6697 28.8752 14.4955 28.8752 15.5964 29.6091C15.5964 29.6091 16.4037 29.9761 16.9174 31.3706C16.9174 31.3706 17.6514 33.7192 20.9541 32.9852V35.0403C20.9541 35.3339 20.7339 35.7008 20.1468 35.6274C15.4495 34.0128 12 29.5357 12 24.2513Z" fill="#D9C5F8"/>
</svg>
