<svg width="36" height="35" viewBox="0 0 36 35" fill="none" xmlns="http://www.w3.org/2000/svg">
<path d="M2 15C2 13.741 2.59278 12.5554 3.6 11.8L15.6 2.8C17.0222 1.73333 18.9778 1.73333 20.4 2.8L32.4 11.8C33.4072 12.5554 34 13.741 34 15V29C34 31.2091 32.2091 33 30 33H24.0526C23.5003 33 23.0526 32.5523 23.0526 32V25.4C23.0526 24.2954 22.1572 23.4 21.0526 23.4H14.9474C13.8428 23.4 12.9474 24.2954 12.9474 25.4V32C12.9474 32.5523 12.4997 33 11.9474 33H6C3.79086 33 2 31.2091 2 29L2 15Z" stroke="#D9C5F8" stroke-width="3"/>
</svg>
