<svg width="48" height="48" viewBox="0 0 48 48" fill="none" xmlns="http://www.w3.org/2000/svg">
<path fill-rule="evenodd" clip-rule="evenodd" d="M0 24C0 10.7452 10.7452 0 24 0C37.2548 0 48 10.7452 48 24C48 37.2548 37.2548 48 24 48C10.7452 48 0 37.2548 0 24ZM12.3 19.95V36H17.4V19.95H12.3ZM12 14.85C12 16.5 13.2 17.7 14.85 17.7C16.5 17.7 17.7 16.5 17.7 14.85C17.7 13.2 16.5 12 14.85 12C13.35 12 12 13.2 12 14.85ZM30.9 36H35.7V26.1C35.7 21.15 32.7 19.5 29.85 19.5C27.3 19.5 25.5 21.15 25.05 22.2V19.95H20.25V36H25.35V27.45C25.35 25.2 26.85 24 28.35 24C29.85 24 30.9 24.75 30.9 27.3V36Z" fill="#D9C5F8"/>
</svg>
