<svg width="32" height="32" viewBox="0 0 32 32" fill="none" xmlns="http://www.w3.org/2000/svg">
<path fill-rule="evenodd" clip-rule="evenodd" d="M0 16.0001C0 7.16357 7.16344 0.00012207 16 0.00012207C24.8366 0.00012207 32 7.16357 32 16.0001C32 24.8367 24.8366 32.0001 16 32.0001C7.16344 32.0001 0 24.8367 0 16.0001ZM8 16.1677C8 11.764 11.5718 8.19212 15.9755 8.19212C20.3792 8.19212 23.951 11.764 24 16.1677C24 19.6906 21.7492 22.6753 18.5688 23.7518C18.1774 23.8007 18.0306 23.556 18.0306 23.3603V21.1585C18.0306 20.4245 17.7859 19.9352 17.4924 19.6906C19.2538 19.4949 21.1132 18.8588 21.1132 15.7762C21.1132 14.8955 20.7706 14.1615 20.2814 13.6233C20.2852 13.6079 20.2906 13.5886 20.297 13.5656C20.3719 13.2954 20.5892 12.5112 20.1835 11.5193C20.1835 11.5193 19.4985 11.3236 17.9816 12.3511C17.3456 12.2044 16.6605 12.1065 15.9755 12.1065C15.2905 12.1065 14.6055 12.1554 13.9694 12.3511C12.4526 11.3236 11.7676 11.5193 11.7676 11.5193C11.3351 12.5764 11.6105 13.3976 11.6669 13.5658L11.6697 13.5744C11.1315 14.1615 10.8379 14.8466 10.8379 15.7273C10.8379 18.8099 12.6973 19.4949 14.4587 19.6906C14.263 19.8863 14.0184 20.2288 13.9694 20.767C13.5291 20.9628 12.4037 21.3053 11.6697 20.082C11.6697 20.082 11.2294 19.2992 10.4465 19.2502C10.4465 19.2502 9.66364 19.2502 10.3976 19.7395C10.3976 19.7395 10.9358 19.9842 11.2783 20.9138C11.2783 20.9138 11.7676 22.4796 13.9694 21.9903V23.3603C13.9694 23.556 13.8226 23.8007 13.4312 23.7518C10.2997 22.6753 8 19.6906 8 16.1677Z" fill="#D9C5F8"/>
</svg>
