<svg width="32" height="32" viewBox="0 0 32 32" fill="none" xmlns="http://www.w3.org/2000/svg">
<path d="M16 18.8001C14.5 18.8001 13.2 17.6001 13.2 16.0001C13.2 14.5001 14.4 13.2001 16 13.2001C17.5 13.2001 18.8 14.4001 18.8 16.0001C18.8 17.5001 17.5 18.8001 16 18.8001Z" fill="#D9C5F8"/>
<path fill-rule="evenodd" clip-rule="evenodd" d="M19.4 9.20012H12.6C11.8 9.30012 11.4 9.40012 11.1 9.50012C10.7 9.60012 10.4 9.80012 10.1 10.1001C9.86261 10.3375 9.75045 10.5749 9.61489 10.8618C9.57916 10.9374 9.5417 11.0167 9.5 11.1001C9.48453 11.1465 9.46667 11.1953 9.44752 11.2476C9.34291 11.5335 9.2 11.9239 9.2 12.6001V19.4001C9.3 20.2001 9.4 20.6001 9.5 20.9001C9.6 21.3001 9.8 21.6001 10.1 21.9001C10.3374 22.1375 10.5748 22.2497 10.8617 22.3852C10.9374 22.421 11.0165 22.4584 11.1 22.5001C11.1464 22.5156 11.1952 22.5335 11.2475 22.5526C11.5333 22.6572 11.9238 22.8001 12.6 22.8001H19.4C20.2 22.7001 20.6 22.6001 20.9 22.5001C21.3 22.4001 21.6 22.2001 21.9 21.9001C22.1374 21.6627 22.2495 21.4253 22.3851 21.1384C22.4209 21.0628 22.4583 20.9836 22.5 20.9001C22.5155 20.8537 22.5333 20.8049 22.5525 20.7526C22.6571 20.4668 22.8 20.0764 22.8 19.4001V12.6001C22.7 11.8001 22.6 11.4001 22.5 11.1001C22.4 10.7001 22.2 10.4001 21.9 10.1001C21.6626 9.86273 21.4252 9.75057 21.1383 9.61501C21.0627 9.5793 20.9833 9.54179 20.9 9.50012C20.8536 9.48465 20.8048 9.46679 20.7525 9.44764C20.4667 9.34303 20.0762 9.20012 19.4 9.20012ZM16 11.7001C13.6 11.7001 11.7 13.6001 11.7 16.0001C11.7 18.4001 13.6 20.3001 16 20.3001C18.4 20.3001 20.3 18.4001 20.3 16.0001C20.3 13.6001 18.4 11.7001 16 11.7001ZM21.4 11.6001C21.4 12.1524 20.9523 12.6001 20.4 12.6001C19.8477 12.6001 19.4 12.1524 19.4 11.6001C19.4 11.0478 19.8477 10.6001 20.4 10.6001C20.9523 10.6001 21.4 11.0478 21.4 11.6001Z" fill="#D9C5F8"/>
<path fill-rule="evenodd" clip-rule="evenodd" d="M0 16.0001C0 7.16357 7.16344 0.00012207 16 0.00012207C24.8366 0.00012207 32 7.16357 32 16.0001C32 24.8367 24.8366 32.0001 16 32.0001C7.16344 32.0001 0 24.8367 0 16.0001ZM12.6 7.70012H19.4C20.3 7.80012 20.9 7.90012 21.4 8.10012C22 8.40012 22.4 8.60012 22.9 9.10012C23.4 9.60012 23.7 10.1001 23.9 10.6001C24.1 11.1001 24.3 11.7001 24.3 12.6001V19.4001C24.2 20.3001 24.1 20.9001 23.9 21.4001C23.6 22.0001 23.4 22.4001 22.9 22.9001C22.4 23.4001 21.9 23.7001 21.4 23.9001C20.9 24.1001 20.3 24.3001 19.4 24.3001H12.6C11.7 24.2001 11.1 24.1001 10.6 23.9001C10 23.6001 9.6 23.4001 9.1 22.9001C8.6 22.4001 8.3 21.9001 8.1 21.4001C7.9 20.9001 7.7 20.3001 7.7 19.4001V12.6001C7.8 11.7001 7.9 11.1001 8.1 10.6001C8.4 10.0001 8.6 9.60012 9.1 9.10012C9.6 8.60012 10.1 8.30012 10.6 8.10012C11.1 7.90012 11.7 7.70012 12.6 7.70012Z" fill="#D9C5F8"/>
</svg>
