<svg width="42" height="42" viewBox="0 0 42 42" fill="none" xmlns="http://www.w3.org/2000/svg">
<path d="M9.375 3H32.625C33.4624 2.99919 34.2917 3.16776 35.0655 3.49606C35.8393 3.82437 36.5424 4.30595 37.1346 4.91327C37.7267 5.52058 38.1962 6.2417 38.5163 7.03535C38.8364 7.82899 39.0008 8.67959 39 9.53846V32.4615C39.0008 33.3204 38.8364 34.171 38.5163 34.9647C38.1962 35.7583 37.7267 36.4794 37.1346 37.0867C36.5424 37.694 35.8393 38.1756 35.0655 38.5039C34.2917 38.8322 33.4624 39.0008 32.625 39H9.375C8.5376 39.0008 7.70827 38.8322 6.93446 38.5039C6.16066 38.1756 5.45757 37.694 4.86544 37.0867C4.27331 36.4794 3.80376 35.7583 3.48366 34.9647C3.16357 34.171 2.99921 33.3204 3 32.4615V9.53846C2.99921 8.67959 3.16357 7.82899 3.48366 7.03535C3.80376 6.2417 4.27331 5.52058 4.86544 4.91327C5.45757 4.30595 6.16066 3.82437 6.93446 3.49606C7.70827 3.16776 8.5376 2.99919 9.375 3Z" fill="#000B1D"/>
<path d="M32.6009 11.2114L27.4562 8.73431C26.8607 8.44759 26.149 8.56853 25.6817 9.03588L8.8399 24.3916C8.3869 24.8046 8.38742 25.5178 8.84103 25.9302L10.2167 27.1808C10.5876 27.518 11.146 27.5428 11.5453 27.2399L31.8267 11.854C32.5071 11.3378 33.4844 11.8231 33.4844 12.6772V12.6174C33.4844 12.0179 33.141 11.4714 32.6009 11.2114Z" fill="#0065A9"/>
<g filter="url(#filter0_d_155_113)">
<path d="M32.6009 30.7887L27.4562 33.2657C26.8607 33.5525 26.149 33.4315 25.6817 32.9642L8.8399 17.6084C8.3869 17.1954 8.38742 16.4822 8.84103 16.0698L10.2167 14.8192C10.5876 14.4821 11.146 14.4573 11.5453 14.7602L31.8267 30.146C32.5071 30.6622 33.4844 30.1769 33.4844 29.3229V29.3826C33.4844 29.9821 33.141 30.5286 32.6009 30.7887Z" fill="#007ACC"/>
</g>
<g filter="url(#filter1_d_155_113)">
<path d="M27.4564 33.2662C26.8607 33.5528 26.149 33.4316 25.6816 32.9642C26.2575 33.5401 27.2422 33.1322 27.2422 32.3178V9.6822C27.2422 8.86779 26.2575 8.45992 25.6816 9.0358C26.149 8.56841 26.8607 8.4473 27.4564 8.73376L32.6002 11.2074C33.1407 11.4674 33.4844 12.014 33.4844 12.6138V29.3863C33.4844 29.986 33.1407 30.5327 32.6001 30.7926L27.4564 33.2662Z" fill="#1F9CF0"/>
</g>
<g style="mix-blend-mode:overlay" opacity="0.25">
<path style="mix-blend-mode:overlay" fill-rule="evenodd" clip-rule="evenodd" d="M26.2063 33.3139C26.5995 33.4671 27.048 33.4573 27.4449 33.2663L32.5855 30.7927C33.1257 30.5328 33.4692 29.9861 33.4692 29.3863V12.6139C33.4692 12.0141 33.1257 11.4674 32.5856 11.2075L27.4449 8.73383C26.924 8.48317 26.3143 8.54456 25.8571 8.87694C25.7918 8.92443 25.7296 8.97744 25.6712 9.03586L15.8301 18.0141L11.5435 14.7603C11.1444 14.4573 10.5863 14.4822 10.2157 14.8193L8.84082 16.0699C8.38749 16.4823 8.38697 17.1955 8.8397 17.6085L12.5572 21L8.8397 24.3916C8.38697 24.8046 8.38749 25.5178 8.84082 25.9302L10.2157 27.1808C10.5863 27.5179 11.1444 27.5428 11.5435 27.2399L15.8301 23.986L25.6712 32.9642C25.8269 33.12 26.0097 33.2373 26.2063 33.3139ZM27.2308 15.3319L19.7637 21L27.2308 26.6682V15.3319Z" fill="url(#paint0_linear_155_113)"/>
</g>
<defs>
<filter id="filter0_d_155_113" x="0.167149" y="6.21531" width="41.6506" height="35.5378" filterUnits="userSpaceOnUse" color-interpolation-filters="sRGB">
<feFlood flood-opacity="0" result="BackgroundImageFix"/>
<feColorMatrix in="SourceAlpha" type="matrix" values="0 0 0 0 0 0 0 0 0 0 0 0 0 0 0 0 0 0 127 0" result="hardAlpha"/>
<feOffset/>
<feGaussianBlur stdDeviation="4.16667"/>
<feColorMatrix type="matrix" values="0 0 0 0 0 0 0 0 0 0 0 0 0 0 0 0 0 0 0.25 0"/>
<feBlend mode="overlay" in2="BackgroundImageFix" result="effect1_dropShadow_155_113"/>
<feBlend mode="normal" in="SourceGraphic" in2="effect1_dropShadow_155_113" result="shape"/>
</filter>
<filter id="filter1_d_155_113" x="17.3483" y="0.246647" width="24.4694" height="41.5067" filterUnits="userSpaceOnUse" color-interpolation-filters="sRGB">
<feFlood flood-opacity="0" result="BackgroundImageFix"/>
<feColorMatrix in="SourceAlpha" type="matrix" values="0 0 0 0 0 0 0 0 0 0 0 0 0 0 0 0 0 0 127 0" result="hardAlpha"/>
<feOffset/>
<feGaussianBlur stdDeviation="4.16667"/>
<feColorMatrix type="matrix" values="0 0 0 0 0 0 0 0 0 0 0 0 0 0 0 0 0 0 0.25 0"/>
<feBlend mode="overlay" in2="BackgroundImageFix" result="effect1_dropShadow_155_113"/>
<feBlend mode="normal" in="SourceGraphic" in2="effect1_dropShadow_155_113" result="shape"/>
</filter>
<linearGradient id="paint0_linear_155_113" x1="20.9849" y1="8.58005" x2="20.9849" y2="33.4201" gradientUnits="userSpaceOnUse">
<stop stop-color="white"/>
<stop offset="1" stop-color="white" stop-opacity="0"/>
</linearGradient>
</defs>
</svg>
