<svg width="48" height="48" viewBox="0 0 48 48" fill="none" xmlns="http://www.w3.org/2000/svg">
<path fill-rule="evenodd" clip-rule="evenodd" d="M24.0432 0.180176C10.8147 0.180176 0.087677 11.0881 0.087677 24.5447C0.087677 35.3098 6.95168 44.4428 16.47 47.6646C17.6672 47.8901 18.1067 47.136 18.1067 46.4925C18.1067 45.9115 18.0845 43.9921 18.0742 41.9562C11.4097 43.4301 10.0034 39.0815 10.0034 39.0815C8.91373 36.2652 7.34361 35.5164 7.34361 35.5164C5.17012 34.0042 7.50745 34.0352 7.50745 34.0352C9.913 34.2067 11.1796 36.546 11.1796 36.546C13.3162 40.2709 16.7837 39.194 18.1508 38.5715C18.3658 36.9971 18.9866 35.9215 19.6717 35.3134C14.3508 34.6973 8.75743 32.6081 8.75743 23.2722C8.75743 20.6121 9.69323 18.4386 11.2257 16.7323C10.9769 16.1182 10.157 13.6405 11.4577 10.2844C11.4577 10.2844 13.4694 9.62952 18.0472 12.7819C19.9581 12.242 22.0074 11.9713 24.0432 11.962C26.0791 11.9713 28.13 12.242 30.0444 12.7819C34.6167 9.62952 36.6256 10.2844 36.6256 10.2844C37.9295 13.6405 37.1092 16.1182 36.8604 16.7323C38.3964 18.4386 39.3259 20.6121 39.3259 23.2722C39.3259 32.6303 33.7218 34.6909 28.3874 35.2941C29.2467 36.0502 30.0123 37.5329 30.0123 39.8061C30.0123 43.0658 29.9845 45.6896 29.9845 46.4925C29.9845 47.1409 30.4157 47.9006 31.63 47.6613C41.1431 44.436 47.9984 35.3062 47.9984 24.5447C47.9984 11.0881 37.273 0.180176 24.0432 0.180176Z" fill="white"/>
<path fill-rule="evenodd" clip-rule="evenodd" d="M9.16087 35.1625C9.10811 35.284 8.92087 35.3199 8.75029 35.2368C8.57654 35.1573 8.47895 34.9923 8.53528 34.8708C8.58685 34.7462 8.77449 34.7119 8.94784 34.7946C9.12199 34.8745 9.22116 35.0411 9.16087 35.1625Z" fill="white"/>
<path fill-rule="evenodd" clip-rule="evenodd" d="M10.1312 36.2632C10.0169 36.3709 9.79359 36.3209 9.64206 36.1506C9.48536 35.9808 9.45601 35.7536 9.57184 35.6443C9.68966 35.5366 9.90625 35.587 10.0633 35.7568C10.22 35.9287 10.2506 36.1543 10.1312 36.2632Z" fill="white"/>
<path fill-rule="evenodd" clip-rule="evenodd" d="M11.0757 37.6665C10.9289 37.7702 10.6889 37.6729 10.5406 37.4563C10.3938 37.2396 10.3938 36.9798 10.5437 36.8757C10.6925 36.7716 10.9289 36.8652 11.0793 37.0802C11.2257 37.3001 11.2257 37.5604 11.0757 37.6665Z" fill="white"/>
<path fill-rule="evenodd" clip-rule="evenodd" d="M12.3697 39.0222C12.2384 39.1694 11.9588 39.1299 11.7541 38.929C11.5446 38.7325 11.4863 38.4537 11.618 38.3064C11.7509 38.1587 12.0321 38.2003 12.2384 38.3996C12.4463 38.5957 12.5098 38.8765 12.3697 39.0222Z" fill="white"/>
<path fill-rule="evenodd" clip-rule="evenodd" d="M14.1549 39.8093C14.0969 40.0002 13.8276 40.0869 13.5562 40.0058C13.2853 39.9223 13.108 39.6988 13.1627 39.5059C13.219 39.3139 13.4896 39.2235 13.7629 39.3102C14.0335 39.3934 14.2112 39.6153 14.1549 39.8093Z" fill="white"/>
<path fill-rule="evenodd" clip-rule="evenodd" d="M16.1153 39.9554C16.1221 40.1563 15.892 40.323 15.6071 40.3262C15.3207 40.333 15.0891 40.1704 15.0859 39.9727C15.0859 39.7698 15.3108 39.6048 15.5972 39.5999C15.8821 39.5943 16.1153 39.7557 16.1153 39.9554Z" fill="white"/>
<path fill-rule="evenodd" clip-rule="evenodd" d="M17.9397 39.6395C17.9738 39.8356 17.7759 40.0369 17.493 40.0902C17.215 40.1422 16.9575 40.0212 16.9222 39.8267C16.8877 39.6258 17.0892 39.4244 17.3669 39.3724C17.6501 39.3223 17.9036 39.4402 17.9397 39.6395Z" fill="white"/>
</svg>
