<svg width="27" height="26" viewBox="0 0 27 26" fill="none" xmlns="http://www.w3.org/2000/svg">
<path d="M1.125 13H8M1.125 13C1.125 19.6274 6.66548 25 13.5 25M1.125 13C1.125 6.37258 6.66548 1 13.5 1M8 13H19M8 13C8 19.6274 10.4624 25 13.5 25M8 13C8 6.37258 10.4624 1 13.5 1M19 13H25.875M19 13C19 6.37258 16.5376 1 13.5 1M19 13C19 19.6274 16.5376 25 13.5 25M25.875 13C25.875 6.37258 20.3345 1 13.5 1M25.875 13C25.875 19.6274 20.3345 25 13.5 25" stroke="#A7AAE0" stroke-width="2" stroke-linecap="round" stroke-linejoin="round"/>
</svg>
