<svg width="56" height="56" viewBox="0 0 56 56" fill="none" xmlns="http://www.w3.org/2000/svg">
<g filter="url(#filter0_f_209_232)">
<circle cx="28" cy="28" r="20" fill="#DF234F"/>
</g>
<g filter="url(#filter1_d_209_232)">
<path d="M30.85 12.075C30.625 12.075 30.4 12.125 30.2 12.2C30.625 12.475 30.85 12.85 30.975 13.275C30.975 13.325 31 13.375 31 13.425C31 13.475 31.025 13.525 31.025 13.575C31.05 14.3 30.825 14.4 30.675 14.825C30.425 15.375 30.5 15.975 30.8 16.45C30.825 16.5 30.85 16.575 30.9 16.625C30.575 14.525 32.325 14.225 32.65 13.575C32.675 13 32.2 12.625 31.825 12.35C31.45 12.125 31.15 12.075 30.85 12.075ZM33.475 12.525C33.45 12.725 33.475 12.675 33.45 12.775C33.45 12.85 33.45 12.925 33.425 13C33.4 13.075 33.4 13.125 33.375 13.2C33.35 13.275 33.325 13.325 33.3 13.4C33.275 13.45 33.25 13.5 33.225 13.575C33.2 13.6 33.175 13.65 33.15 13.675C33.125 13.7 33.125 13.725 33.1 13.75C33.05 13.8 33.025 13.875 32.975 13.925L32.825 14.075C32.775 14.125 32.725 14.175 32.675 14.2C32.5 14.325 32.3 14.425 32.125 14.55C32.075 14.6 32 14.625 31.95 14.675C31.9 14.725 31.85 14.75 31.8 14.8L31.65 14.95C31.6 15 31.55 15.05 31.525 15.125C31.475 15.175 31.45 15.25 31.4 15.3C31.375 15.375 31.35 15.425 31.3 15.5C31.275 15.575 31.25 15.625 31.225 15.7C31.2 15.775 31.175 15.85 31.175 15.9C31.175 15.925 31.175 15.975 31.15 16C31.15 16.025 31.15 16.075 31.125 16.1V16.45C31.125 16.525 31.125 16.575 31.15 16.65C31.15 16.725 31.175 16.775 31.2 16.85C31.225 16.925 31.25 16.975 31.275 17.05C31.3 17.1 31.325 17.125 31.325 17.175L29.425 16.45C29.1 16.35 28.8 16.275 28.475 16.2C28.3 16.15 28.125 16.125 27.95 16.075C27.45 15.975 26.95 15.9 26.45 15.85H26.4C25.9 15.8 25.425 15.775 24.925 15.775C24.55 15.775 24.2 15.8 23.85 15.825C23.35 15.85 22.85 15.925 22.35 16L21.975 16.075C21.725 16.125 21.475 16.175 21.225 16.25C21.1 16.275 20.975 16.325 20.85 16.35C20.725 16.4 20.6 16.45 20.5 16.5C20.4 16.55 20.325 16.575 20.225 16.625C20.2 16.625 20.2 16.625 20.175 16.65C20.1 16.7 20.025 16.725 19.95 16.775C19.925 16.775 19.9 16.8 19.9 16.8C19.8 16.85 19.725 16.9 19.65 16.925C19.6 16.95 19.525 16.975 19.475 17C19.45 17.025 19.425 17.025 19.4 17.05C19.325 17.1 19.25 17.125 19.175 17.175C19.1 17.225 19.025 17.25 18.975 17.3C18.925 17.35 18.85 17.375 18.8 17.425C18.8 17.425 18.775 17.425 18.775 17.45C18.725 17.475 18.675 17.525 18.625 17.575L18.6 17.6C18.55 17.625 18.525 17.675 18.475 17.7C18.45 17.7 18.45 17.725 18.425 17.725C18.375 17.75 18.35 17.8 18.3 17.825C18.3 17.85 18.275 17.85 18.275 17.85L18.125 18L18.1 18.025L17.95 18.175C17.95 18.175 17.95 18.2 17.925 18.2L17.8 18.325C17.775 18.35 17.75 18.35 17.75 18.375L17.6 18.525C17.6 18.55 17.575 18.55 17.575 18.575L17.375 18.775L17.35 18.8C17.225 18.95 17.075 19.075 16.925 19.2C16.775 19.325 16.625 19.45 16.45 19.575C16.275 19.7 16.125 19.8 15.95 19.9C15.775 20 15.6 20.075 15.425 20.15C15.25 20.225 15.075 20.3 14.9 20.35C14.55 20.425 14.2 20.575 13.9 20.6C13.9 20.475 13.825 20.5 13.75 20.5C13.675 20.525 13.6 20.525 13.55 20.55C13.475 20.575 13.425 20.6 13.35 20.625C13.275 20.65 13.225 20.675 13.15 20.725C13.1 20.775 13.025 20.8 12.975 20.85C12.925 20.9 12.85 20.95 12.8 21C12.75 21.05 12.675 21.1 12.625 21.15C12.575 21.2 12.525 21.25 12.475 21.325C12.425 21.4 12.375 21.45 12.35 21.525C12.3 21.575 12.275 21.65 12.225 21.725C12.2 21.8 12.15 21.875 12.125 21.95L12.05 22.175C12.025 22.25 12.025 22.3 12 22.375V22.4C11.975 22.475 11.975 22.575 11.975 22.625C12 22.6 12 22.65 12 22.7V22.8C12 22.85 12.025 22.9 12.025 22.95C12.05 23 12.05 23.05 12.075 23.1C12.1 23.15 12.125 23.2 12.175 23.25C12.2 23.3 12.25 23.35 12.275 23.4C12.325 23.45 12.375 23.5 12.425 23.525C12.475 23.575 12.525 23.625 12.575 23.65C12.775 23.825 12.825 23.875 13.075 24.025C13.125 24.05 13.15 24.075 13.2 24.1H13.225V24.15C13.225 24.225 13.25 24.275 13.275 24.35C13.3 24.425 13.325 24.5 13.35 24.55L13.425 24.7C13.425 24.725 13.45 24.725 13.45 24.75C13.475 24.825 13.525 24.875 13.55 24.925C13.6 24.975 13.625 25.05 13.675 25.1L13.825 25.25L13.975 25.4H14C14.05 25.45 14.1 25.475 14.15 25.525C14.2 25.575 14.275 25.6 14.325 25.625C14.375 25.65 14.45 25.7 14.525 25.725C14.575 25.75 14.625 25.775 14.7 25.775C14.7 25.775 14.725 25.775 14.725 25.8C14.75 25.8 14.8 25.825 14.825 25.825C14.8 26.275 14.8 26.7 14.85 26.85C14.925 27.025 15.3 26.5 15.65 25.925C15.6 26.5 15.575 27.175 15.65 27.375C15.75 27.575 16.225 26.925 16.675 26.225C22.525 24.875 27.875 28.925 28.45 34.65C28.35 33.75 27.25 33.25 26.725 33.375C26.475 33.975 26.05 34.775 25.375 35.25C25.425 34.7 25.4 34.15 25.3 33.6C25.125 34.35 24.775 35.0749 24.275 35.6749C23.5 35.7249 22.7 35.35 22.3 34.775C22.275 34.75 22.25 34.6999 22.225 34.6749C22.2 34.6249 22.175 34.55 22.15 34.5C22.125 34.45 22.1 34.375 22.1 34.325V34.15V34.025C22.1 33.975 22.125 33.9 22.15 33.85C22.175 33.8 22.175 33.7249 22.2 33.6749C22.225 33.6249 22.25 33.55 22.3 33.5C22.45 33.1 22.45 32.775 22.175 32.6L22.025 32.525C22 32.525 21.95 32.5 21.925 32.5C21.9 32.5 21.875 32.475 21.85 32.475C21.8 32.45 21.725 32.4499 21.675 32.4249C21.625 32.3999 21.55 32.4 21.5 32.4C21.45 32.4 21.375 32.375 21.325 32.375H21.2C21.125 32.375 21.075 32.375 21.025 32.4C20.975 32.4 20.9 32.4249 20.85 32.4249C20.8 32.4499 20.725 32.45 20.675 32.475C20.625 32.5 20.575 32.5249 20.5 32.5499L20.35 32.625C18.425 33.875 19.575 36.8249 20.875 37.6749C20.375 37.7749 19.875 37.875 19.725 37.975L19.7 38C20.05 38.225 20.425 38.3999 20.825 38.5499C21.35 38.7249 21.925 38.875 22.175 38.95C22.85 39.1 23.55 39.15 24.25 39.1C27.9 38.85 30.9 36.05 31.45 32.4C31.475 32.475 31.475 32.55 31.5 32.625C31.525 32.775 31.55 32.925 31.575 33.1C31.6 33.175 31.6 33.25 31.6 33.325V33.35C31.6 33.425 31.625 33.5 31.625 33.575C31.625 33.675 31.65 33.75 31.65 33.85V34.9C31.65 34.975 31.625 35.025 31.625 35.1V35.1749C31.625 35.2499 31.6 35.3249 31.6 35.4249C31.575 35.4999 31.575 35.575 31.55 35.65V35.6749C31.525 35.7499 31.525 35.825 31.5 35.9V35.9249C31.475 35.9999 31.475 36.075 31.45 36.15V36.1749L31.375 36.4V36.4249C31.35 36.4999 31.325 36.5999 31.3 36.6749C31.275 36.7499 31.25 36.8249 31.2 36.9249C31.175 36.9999 31.15 37.0999 31.1 37.1749C31.075 37.2499 31.025 37.3249 31 37.4249C30.975 37.4999 30.925 37.575 30.9 37.65C30.9 37.675 30.875 37.7 30.875 37.7C30.875 37.7 30.875 37.725 30.85 37.725C30.325 38.8 29.525 39.75 28.525 40.5C28.45 40.55 28.4 40.6 28.325 40.65C28.3 40.675 28.275 40.675 28.275 40.7C28.225 40.75 28.15 40.775 28.1 40.825L28.125 40.875C28.25 40.85 28.35 40.85 28.475 40.825C28.7 40.8 28.9 40.75 29.125 40.7C29.175 40.7 29.25 40.675 29.3 40.65C29.35 40.65 29.375 40.625 29.425 40.625C29.475 40.625 29.55 40.6 29.6 40.6C29.65 40.575 29.7 40.5749 29.75 40.5499C30.575 40.3499 31.375 40.075 32.15 39.75C30.825 41.55 29.075 43 27.025 43.95C27.975 43.875 28.925 43.725 29.85 43.45C33.175 42.475 35.975 40.225 37.65 37.2C37.3 39.1 36.55 40.925 35.425 42.525C36.225 42 36.95 41.375 37.625 40.7C39.475 38.775 40.7 36.2999 41.1 33.6749C41.375 34.9749 41.475 36.3249 41.35 37.65C47.325 29.325 41.85 20.7 39.55 18.425C39.55 18.4 39.525 18.4 39.525 18.375C39.525 18.475 39.525 18.575 39.5 18.675C39.475 18.875 39.45 19.05 39.425 19.225C39.375 19.4 39.325 19.6 39.275 19.775C39.225 19.95 39.15 20.125 39.075 20.3C39 20.475 38.925 20.65 38.825 20.8C38.725 20.95 38.625 21.125 38.525 21.275C38.425 21.425 38.3 21.575 38.175 21.725C38.05 21.875 37.925 22 37.775 22.15C37.7 22.225 37.625 22.3 37.525 22.35C37.45 22.4 37.4 22.45 37.325 22.525C37.175 22.65 37.025 22.75 36.85 22.85C36.7 22.95 36.525 23.05 36.35 23.125L35.825 23.35C35.65 23.425 35.475 23.475 35.3 23.525C35.125 23.575 34.925 23.625 34.75 23.65C34.55 23.675 34.375 23.7 34.2 23.725C34.075 23.725 33.925 23.75 33.8 23.75C33.6 23.75 33.425 23.725 33.25 23.725C33.05 23.7 32.875 23.675 32.7 23.65C32.5 23.625 32.325 23.575 32.15 23.5C32.325 23.475 32.525 23.475 32.7 23.425C32.9 23.4 33.075 23.35 33.25 23.3C33.425 23.25 33.625 23.2 33.775 23.125L34.3 22.9C34.475 22.825 34.625 22.725 34.8 22.625C34.95 22.525 35.125 22.4 35.275 22.3C35.425 22.175 35.575 22.05 35.7 21.925C35.85 21.8 35.975 21.65 36.1 21.525C36.225 21.375 36.35 21.225 36.45 21.075C36.475 21.05 36.475 21.025 36.5 21C36.575 20.875 36.675 20.725 36.75 20.6C36.85 20.425 36.925 20.275 37 20.1C37.075 19.925 37.15 19.75 37.2 19.575L37.35 19.05C37.375 18.85 37.425 18.675 37.425 18.5C37.45 18.3 37.45 18.125 37.45 17.95C37.45 17.825 37.45 17.675 37.425 17.55C37.4 17.35 37.375 17.175 37.35 17C37.325 16.8 37.275 16.625 37.225 16.45C37.175 16.275 37.1 16.1 37.05 15.925C36.975 15.75 36.9 15.575 36.825 15.425C36.725 15.25 36.65 15.1 36.55 14.925C36.45 14.775 36.325 14.625 36.225 14.475C36.1 14.325 35.975 14.2 35.85 14.05C35.775 13.975 35.7 13.9 35.625 13.85C35.25 13.55 34.875 13.3 34.475 13.05C34.425 13.025 34.375 13 34.3 12.975C33.975 12.7 33.725 12.625 33.475 12.525V12.525Z" fill="#DF234F"/>
</g>
<path fill-rule="evenodd" clip-rule="evenodd" d="M32.2346 23.8828V20.8847C32.2351 20.1015 31.9387 19.3518 31.4136 18.808C30.8886 18.2642 30.18 17.9732 29.4509 18.0019H26.5151C25.786 17.9732 25.0774 18.2642 24.5523 18.808C24.0272 19.3518 23.7309 20.1015 23.7314 20.8847V23.8828C21.8796 24.5868 20.7533 26.602 21.0461 28.6874L21.8964 34.2319C22.3052 36.461 24.1488 38.0509 26.2644 37.9988H29.7373C31.853 38.0509 33.6966 36.461 34.1053 34.2319L34.9557 28.6874C35.2441 26.5915 34.1006 24.5724 32.2346 23.8828ZM28.8781 31.3876L29.066 31.9834C29.1484 32.2561 29.1054 32.5546 28.95 32.7877C28.7946 33.0209 28.5454 33.161 28.2784 33.1653H27.616C27.349 33.161 27.0997 33.0209 26.9444 32.7877C26.789 32.5546 26.7459 32.2561 26.8283 31.9834L27.0163 31.3876C27.1176 31.051 27.0386 30.6819 26.8104 30.4267C26.3032 29.7798 26.3544 28.8204 26.927 28.2398C27.4996 27.6592 28.3947 27.6592 28.9674 28.2398C29.54 28.8204 29.5911 29.7798 29.0839 30.4267C28.8558 30.6819 28.7767 31.051 28.8781 31.3876ZM25.074 23.5561H25.3962V23.5657H30.892V20.8847C30.8581 20.0657 30.214 19.43 29.4509 19.4625H26.5151C25.752 19.43 25.1079 20.0657 25.074 20.8847V23.5561Z" fill="black" fill-opacity="0.7"/>
<defs>
<filter id="filter0_f_209_232" x="0" y="0" width="56" height="56" filterUnits="userSpaceOnUse" color-interpolation-filters="sRGB">
<feFlood flood-opacity="0" result="BackgroundImageFix"/>
<feBlend mode="normal" in="SourceGraphic" in2="BackgroundImageFix" result="shape"/>
<feGaussianBlur stdDeviation="4" result="effect1_foregroundBlur_209_232"/>
</filter>
<filter id="filter1_d_209_232" x="8.97498" y="9" width="38.0751" height="38" filterUnits="userSpaceOnUse" color-interpolation-filters="sRGB">
<feFlood flood-opacity="0" result="BackgroundImageFix"/>
<feColorMatrix in="SourceAlpha" type="matrix" values="0 0 0 0 0 0 0 0 0 0 0 0 0 0 0 0 0 0 127 0" result="hardAlpha"/>
<feOffset/>
<feGaussianBlur stdDeviation="1.5"/>
<feComposite in2="hardAlpha" operator="out"/>
<feColorMatrix type="matrix" values="0 0 0 0 0 0 0 0 0 0 0 0 0 0 0 0 0 0 1 0"/>
<feBlend mode="normal" in2="BackgroundImageFix" result="effect1_dropShadow_209_232"/>
<feBlend mode="normal" in="SourceGraphic" in2="effect1_dropShadow_209_232" result="shape"/>
</filter>
</defs>
</svg>
