<svg width="56" height="56" viewBox="0 0 56 56" fill="none" xmlns="http://www.w3.org/2000/svg">
<g filter="url(#filter0_f_209_234)">
<circle cx="28" cy="28" r="20" fill="#61DAFB"/>
</g>
<g filter="url(#filter1_d_209_234)">
<path d="M28 30.8499C29.574 30.8499 30.85 29.5739 30.85 27.9999C30.85 26.4259 29.574 25.1499 28 25.1499C26.426 25.1499 25.15 26.4259 25.15 27.9999C25.15 29.5739 26.426 30.8499 28 30.8499Z" fill="#61DAFB"/>
<path d="M38.825 23.2999C38.275 23.0999 37.7 22.8999 37.1 22.7249C37.25 22.1249 37.375 21.5249 37.475 20.9499C38 17.6499 37.425 15.3249 35.825 14.4249C35.35 14.1499 34.825 14.0249 34.225 14.0249C32.475 14.0249 30.25 15.3249 28 17.4999C25.75 15.3249 23.525 14.0249 21.775 14.0249C21.175 14.0249 20.65 14.1499 20.175 14.4249C18.575 15.3499 18 17.6749 18.525 20.9499C18.625 21.5249 18.75 22.1249 18.9 22.7249C18.3 22.8999 17.725 23.0749 17.175 23.2999C14.05 24.4999 12.35 26.1499 12.35 27.9999C12.35 29.8499 14.075 31.4999 17.175 32.6999C17.725 32.8999 18.3 33.0999 18.9 33.2749C18.75 33.8749 18.625 34.4749 18.525 35.0499C18 38.3499 18.575 40.6749 20.175 41.5749C20.65 41.8499 21.175 41.9749 21.775 41.9749C23.55 41.9749 25.775 40.6749 28 38.4999C30.25 40.6749 32.475 41.9749 34.225 41.9749C34.825 41.9749 35.35 41.8499 35.825 41.5749C37.425 40.6499 38 38.3249 37.475 35.0499C37.375 34.4749 37.25 33.8749 37.1 33.2749C37.7 33.0999 38.275 32.9249 38.825 32.6999C41.95 31.4999 43.65 29.8499 43.65 27.9999C43.65 26.1499 41.95 24.4999 38.825 23.2999V23.2999ZM35.125 15.6749C36.15 16.2749 36.5 18.1249 36.075 20.7499C36 21.2749 35.875 21.8249 35.725 22.3999C34.425 22.0999 33.05 21.8999 31.6 21.7749C30.75 20.5749 29.875 19.4999 29 18.5249C30.85 16.6999 32.725 15.4499 34.25 15.4499C34.575 15.4499 34.875 15.5249 35.125 15.6749V15.6749ZM32.325 30.4999C31.875 31.2999 31.35 32.0999 30.8 32.8999C29.875 32.9749 28.95 32.9999 28 32.9999C27.025 32.9999 26.1 32.9749 25.2 32.8999C24.65 32.0999 24.15 31.2999 23.7 30.4999C23.225 29.6749 22.775 28.8249 22.375 27.9999C22.775 27.1749 23.225 26.3249 23.7 25.4999C24.15 24.6999 24.675 23.8999 25.225 23.0999C26.15 23.0249 27.075 22.9999 28.025 22.9999C29 22.9999 29.925 23.0249 30.825 23.0999C31.375 23.8999 31.875 24.6999 32.325 25.4999C32.8 26.3249 33.25 27.1749 33.65 27.9999C33.225 28.8249 32.8 29.6499 32.325 30.4999ZM34.4 29.6749C34.775 30.5499 35.075 31.3999 35.35 32.2499C34.5 32.4499 33.6 32.5999 32.65 32.7249C32.95 32.2499 33.275 31.7499 33.55 31.2249C33.85 30.6999 34.125 30.1749 34.4 29.6749ZM28 36.4499C27.4 35.7999 26.825 35.0999 26.275 34.3749C26.85 34.3999 27.425 34.4249 28 34.4249C28.575 34.4249 29.15 34.3999 29.725 34.3749C29.175 35.0999 28.6 35.7999 28 36.4499ZM23.35 32.6999C22.4 32.5749 21.5 32.4249 20.65 32.2249C20.925 31.3999 21.225 30.5249 21.6 29.6499C21.875 30.1499 22.15 30.6749 22.45 31.1749C22.75 31.7249 23.05 32.1999 23.35 32.6999V32.6999ZM21.6 26.3249C21.225 25.4499 20.925 24.5999 20.65 23.7499C21.5 23.5499 22.4 23.3999 23.35 23.2749C23.05 23.7499 22.725 24.2499 22.45 24.7749C22.15 25.2999 21.875 25.8249 21.6 26.3249V26.3249ZM28 19.5499C28.6 20.1999 29.175 20.8999 29.725 21.6249C29.15 21.5999 28.575 21.5749 28 21.5749C27.425 21.5749 26.85 21.5999 26.275 21.6249C26.825 20.8999 27.4 20.1999 28 19.5499ZM33.55 24.7999L32.65 23.2999C33.6 23.4249 34.5 23.5749 35.35 23.7749C35.075 24.5999 34.775 25.4749 34.4 26.3499C34.125 25.8249 33.85 25.2999 33.55 24.7999ZM19.925 20.7499C19.5 18.1249 19.85 16.2749 20.875 15.6749C21.125 15.5249 21.425 15.4499 21.75 15.4499C23.25 15.4499 25.125 16.6749 27 18.5249C26.125 19.4749 25.25 20.5749 24.4 21.7749C22.95 21.8999 21.575 22.1249 20.275 22.3999C20.125 21.8249 20.025 21.2749 19.925 20.7499V20.7499ZM13.75 27.9999C13.75 26.8249 15.175 25.5749 17.675 24.6499C18.175 24.4499 18.725 24.2749 19.275 24.1249C19.675 25.3749 20.175 26.6999 20.775 28.0249C20.175 29.3499 19.65 30.6499 19.275 31.8999C15.825 30.8999 13.75 29.3999 13.75 27.9999ZM20.875 40.3249C19.85 39.7249 19.5 37.8749 19.925 35.2499C20 34.7249 20.125 34.1749 20.275 33.5999C21.575 33.8999 22.95 34.0999 24.4 34.2249C25.25 35.4249 26.125 36.4999 27 37.4749C25.15 39.2999 23.275 40.5499 21.75 40.5499C21.425 40.5499 21.125 40.4749 20.875 40.3249ZM36.075 35.2499C36.5 37.8749 36.15 39.7249 35.125 40.3249C34.875 40.4749 34.575 40.5499 34.25 40.5499C32.75 40.5499 30.875 39.3249 29 37.4749C29.875 36.5249 30.75 35.4249 31.6 34.2249C33.05 34.0999 34.425 33.8749 35.725 33.5999C35.875 34.1749 35.975 34.7249 36.075 35.2499V35.2499ZM38.325 31.3499C37.825 31.5499 37.275 31.7249 36.725 31.8749C36.325 30.6249 35.825 29.2999 35.225 27.9749C35.825 26.6499 36.35 25.3499 36.725 24.0999C40.175 25.0999 42.25 26.5999 42.25 27.9999C42.25 29.1749 40.8 30.4249 38.325 31.3499Z" fill="#61DAFB"/>
</g>
<path fill-rule="evenodd" clip-rule="evenodd" d="M32.2346 23.8828V20.8847C32.2351 20.1015 31.9387 19.3518 31.4136 18.808C30.8886 18.2642 30.18 17.9732 29.4509 18.0019H26.5151C25.786 17.9732 25.0774 18.2642 24.5523 18.808C24.0272 19.3518 23.7309 20.1015 23.7314 20.8847V23.8828C21.8796 24.5868 20.7533 26.602 21.0461 28.6874L21.8964 34.2319C22.3052 36.461 24.1488 38.0509 26.2644 37.9988H29.7373C31.853 38.0509 33.6966 36.461 34.1053 34.2319L34.9557 28.6874C35.2441 26.5915 34.1006 24.5724 32.2346 23.8828ZM28.8781 31.3876L29.066 31.9834C29.1484 32.2561 29.1054 32.5546 28.95 32.7877C28.7946 33.0209 28.5454 33.161 28.2784 33.1653H27.616C27.349 33.161 27.0997 33.0209 26.9444 32.7877C26.789 32.5546 26.7459 32.2561 26.8283 31.9834L27.0163 31.3876C27.1176 31.051 27.0386 30.6819 26.8104 30.4267C26.3032 29.7798 26.3544 28.8204 26.927 28.2398C27.4996 27.6592 28.3947 27.6592 28.9674 28.2398C29.54 28.8204 29.5911 29.7798 29.0839 30.4267C28.8558 30.6819 28.7767 31.051 28.8781 31.3876ZM25.074 23.5561H25.3962V23.5657H30.892V20.8847C30.8581 20.0657 30.214 19.43 29.4509 19.4625H26.5151C25.752 19.43 25.1079 20.0657 25.074 20.8847V23.5561Z" fill="black" fill-opacity="0.7"/>
<defs>
<filter id="filter0_f_209_234" x="0" y="0" width="56" height="56" filterUnits="userSpaceOnUse" color-interpolation-filters="sRGB">
<feFlood flood-opacity="0" result="BackgroundImageFix"/>
<feBlend mode="normal" in="SourceGraphic" in2="BackgroundImageFix" result="shape"/>
<feGaussianBlur stdDeviation="4" result="effect1_foregroundBlur_209_234"/>
</filter>
<filter id="filter1_d_209_234" x="10" y="10" width="36" height="36" filterUnits="userSpaceOnUse" color-interpolation-filters="sRGB">
<feFlood flood-opacity="0" result="BackgroundImageFix"/>
<feColorMatrix in="SourceAlpha" type="matrix" values="0 0 0 0 0 0 0 0 0 0 0 0 0 0 0 0 0 0 127 0" result="hardAlpha"/>
<feOffset/>
<feGaussianBlur stdDeviation="1"/>
<feComposite in2="hardAlpha" operator="out"/>
<feColorMatrix type="matrix" values="0 0 0 0 0 0 0 0 0 0 0 0 0 0 0 0 0 0 1 0"/>
<feBlend mode="normal" in2="BackgroundImageFix" result="effect1_dropShadow_209_234"/>
<feBlend mode="normal" in="SourceGraphic" in2="effect1_dropShadow_209_234" result="shape"/>
</filter>
</defs>
</svg>
