<svg width="48" height="48" viewBox="0 0 48 48" fill="none" xmlns="http://www.w3.org/2000/svg">
<path fill-rule="evenodd" clip-rule="evenodd" d="M26.616 28.2C26.976 28.656 27.408 29.172 27.408 29.172C30.06 29.088 31.08 27.348 31.08 27.348C31.08 23.484 29.352 20.352 29.352 20.352C27.624 19.056 25.98 19.092 25.98 19.092L25.812 19.284C27.852 19.908 28.8 20.808 28.8 20.808C27.552 20.124 26.328 19.788 25.188 19.656C24.324 19.56 23.496 19.584 22.764 19.68C22.7011 19.68 22.6474 19.6891 22.5869 19.6995L22.56 19.704C22.14 19.74 21.12 19.896 19.836 20.46C19.392 20.664 19.128 20.808 19.128 20.808C19.128 20.808 20.124 19.86 22.284 19.236L22.164 19.092C22.164 19.092 20.52 19.056 18.792 20.352C18.792 20.352 17.064 23.484 17.064 27.348C17.064 27.348 18.072 29.088 20.724 29.172C20.724 29.172 21.168 28.632 21.528 28.176C20.004 27.72 19.428 26.76 19.428 26.76C19.428 26.76 19.548 26.844 19.764 26.964C19.776 26.976 19.788 26.988 19.812 27C19.83 27.012 19.848 27.021 19.866 27.03C19.884 27.039 19.902 27.048 19.92 27.06C20.22 27.228 20.52 27.36 20.796 27.468C21.288 27.66 21.876 27.852 22.56 27.984C23.46 28.152 24.516 28.212 25.668 27.996C26.232 27.9 26.808 27.732 27.408 27.48C27.828 27.324 28.296 27.096 28.788 26.772C28.788 26.772 28.188 27.756 26.616 28.2ZM20.604 24.9C20.604 24.168 21.144 23.568 21.828 23.568C22.512 23.568 23.064 24.168 23.052 24.9C23.052 25.632 22.512 26.232 21.828 26.232C21.156 26.232 20.604 25.632 20.604 24.9ZM24.984 24.9C24.984 24.168 25.524 23.568 26.208 23.568C26.892 23.568 27.432 24.168 27.432 24.9C27.432 25.632 26.892 26.232 26.208 26.232C25.536 26.232 24.984 25.632 24.984 24.9Z" fill="#D9C5F8"/>
<path fill-rule="evenodd" clip-rule="evenodd" d="M24 0C37.2548 0 48 10.7452 48 24C48 37.2548 37.2548 48 24 48C10.7452 48 0 37.2548 0 24C0 10.7452 10.7452 0 24 0ZM13.5 15.972C13.5 14.604 14.604 13.5 15.96 13.5H32.04C33.396 13.5 34.5 14.604 34.5 15.972V37.5L31.92 35.22L30.468 33.876L28.932 32.448L29.568 34.668H15.96C14.604 34.668 13.5 33.564 13.5 32.196V15.972Z" fill="#D9C5F8"/>
</svg>
