<svg width="48" height="48" viewBox="0 0 48 48" fill="none" xmlns="http://www.w3.org/2000/svg">
<circle cx="24" cy="24" r="24" fill="#D9C5F8"/>
<path d="M12.6667 15.5L21.3192 22.0341L21.322 22.0365C22.2828 22.741 22.7634 23.0935 23.2899 23.2297C23.7552 23.35 24.2444 23.35 24.7097 23.2297C25.2366 23.0934 25.7187 22.7399 26.6812 22.0341C26.6812 22.0341 32.2309 17.7751 35.3333 15.5M11.25 29.3837V18.617C11.25 17.0302 11.25 16.2362 11.5588 15.6301C11.8305 15.097 12.2636 14.6638 12.7967 14.3922C13.4028 14.0834 14.1968 14.0834 15.7836 14.0834H32.2169C33.8038 14.0834 34.5961 14.0834 35.2021 14.3922C35.7353 14.6638 36.1698 15.097 36.4415 15.6301C36.75 16.2356 36.75 17.0286 36.75 18.6123V29.3884C36.75 30.9722 36.75 31.764 36.4415 32.3695C36.1698 32.9027 35.7353 33.3366 35.2021 33.6082C34.5967 33.9167 33.8048 33.9167 32.221 33.9167H15.779C14.1952 33.9167 13.4022 33.9167 12.7967 33.6082C12.2636 33.3366 11.8305 32.9027 11.5588 32.3695C11.25 31.7635 11.25 30.9705 11.25 29.3837Z" stroke="#101123" stroke-width="3" stroke-linecap="round" stroke-linejoin="round"/>
</svg>
