<svg width="34" height="36" viewBox="0 0 34 36" fill="none" xmlns="http://www.w3.org/2000/svg">
<path d="M26.7958 6.24695V6.24695C26.9629 3.95309 25.147 2 22.8471 2H11.1529C8.853 2 7.03707 3.95309 7.20423 6.24695V6.24695M26.7958 6.24695L26.0331 16.7123C25.8392 19.3729 25.7423 20.7031 25.2336 21.7446C24.5812 23.0801 23.4564 24.1259 22.077 24.6794C21.0014 25.1111 19.6676 25.1111 17 25.1111V25.1111M26.7958 6.24695V6.24695C30.0907 6.24695 32.6407 9.13392 32.2337 12.4037L31.9959 14.3139C31.9719 14.5065 31.9599 14.6029 31.9471 14.6865C31.5081 17.5519 29.0832 19.6936 26.1855 19.7754C26.1009 19.7778 26.0039 19.7778 25.8097 19.7778V19.7778M7.20423 6.24695L7.96689 16.7123C8.16078 19.3729 8.25772 20.7031 8.76642 21.7446C9.41877 23.0801 10.5436 24.1259 11.923 24.6794C12.9986 25.1111 14.3324 25.1111 17 25.1111V25.1111M7.20423 6.24695V6.24695C3.90925 6.24695 1.35935 9.13392 1.76634 12.4037L2.00411 14.3139C2.02809 14.5065 2.04008 14.6029 2.05289 14.6865C2.49194 17.5519 4.91679 19.6936 7.81447 19.7754C7.89906 19.7778 7.99613 19.7778 8.19028 19.7778V19.7778M17 25.1111V28.6667M17 28.6667L22.7995 32.3397C23.7358 32.9326 24.2039 33.2291 24.1969 33.5123C24.1948 33.5986 24.1704 33.683 24.1259 33.7571C23.9803 34 23.4262 34 22.3179 34H11.6821C10.5738 34 10.0197 34 9.87405 33.7571C9.82964 33.683 9.80518 33.5986 9.80306 33.5123C9.7961 33.2291 10.2642 32.9326 11.2005 32.3397L17 28.6667Z" stroke="#D9C5F8" stroke-width="3" stroke-linejoin="round"/>
</svg>
