<svg width="32" height="32" viewBox="0 0 32 32" fill="none" xmlns="http://www.w3.org/2000/svg">
<path fill-rule="evenodd" clip-rule="evenodd" d="M17.744 18.8001C17.984 19.1041 18.272 19.4481 18.272 19.4481C20.04 19.3921 20.72 18.2321 20.72 18.2321C20.72 15.6561 19.568 13.5681 19.568 13.5681C18.416 12.7041 17.32 12.7281 17.32 12.7281L17.208 12.8561C18.568 13.2721 19.2 13.8721 19.2 13.8721C18.368 13.4161 17.552 13.1921 16.792 13.1041C16.216 13.0401 15.664 13.0561 15.176 13.1201C15.1341 13.1201 15.0983 13.1262 15.0579 13.1331L15.04 13.1361C14.76 13.1601 14.08 13.2641 13.224 13.6401C12.928 13.7761 12.752 13.8721 12.752 13.8721C12.752 13.8721 13.416 13.2401 14.856 12.8241L14.776 12.7281C14.776 12.7281 13.68 12.7041 12.528 13.5681C12.528 13.5681 11.376 15.6561 11.376 18.2321C11.376 18.2321 12.048 19.3921 13.816 19.4481C13.816 19.4481 14.112 19.0881 14.352 18.7841C13.336 18.4801 12.952 17.8401 12.952 17.8401C12.952 17.8401 13.032 17.8961 13.176 17.9761C13.184 17.9841 13.192 17.9921 13.208 18.0001C13.22 18.0081 13.232 18.0141 13.244 18.0201C13.256 18.0261 13.268 18.0321 13.28 18.0401C13.48 18.1521 13.68 18.2401 13.864 18.3121C14.192 18.4401 14.584 18.5681 15.04 18.6561C15.64 18.7681 16.344 18.8081 17.112 18.6641C17.488 18.6001 17.872 18.4881 18.272 18.3201C18.552 18.2161 18.864 18.0641 19.192 17.8481C19.192 17.8481 18.792 18.5041 17.744 18.8001ZM13.736 16.6001C13.736 16.1121 14.096 15.7121 14.552 15.7121C15.008 15.7121 15.376 16.1121 15.368 16.6001C15.368 17.0881 15.008 17.4881 14.552 17.4881C14.104 17.4881 13.736 17.0881 13.736 16.6001ZM16.656 16.6001C16.656 16.1121 17.016 15.7121 17.472 15.7121C17.928 15.7121 18.288 16.1121 18.288 16.6001C18.288 17.0881 17.928 17.4881 17.472 17.4881C17.024 17.4881 16.656 17.0881 16.656 16.6001Z" fill="#D9C5F8"/>
<path fill-rule="evenodd" clip-rule="evenodd" d="M16 0.00012207C24.8366 0.00012207 32 7.16357 32 16.0001C32 24.8367 24.8366 32.0001 16 32.0001C7.16344 32.0001 0 24.8367 0 16.0001C0 7.16357 7.16344 0.00012207 16 0.00012207ZM9 10.6481C9 9.73612 9.736 9.00012 10.64 9.00012H21.36C22.264 9.00012 23 9.73612 23 10.6481V25.0001L21.28 23.4801L20.312 22.5841L19.288 21.6321L19.712 23.1121H10.64C9.736 23.1121 9 22.3761 9 21.4641V10.6481Z" fill="#D9C5F8"/>
</svg>
