<svg width="36" height="36" viewBox="0 0 36 36" fill="none" xmlns="http://www.w3.org/2000/svg">
<g clip-path="url(#clip0_155_123)">
<path d="M6.375 2.90165e-06H29.625C30.4624 -0.00080659 31.2917 0.167763 32.0655 0.496065C32.8393 0.824367 33.5424 1.30595 34.1346 1.91327C34.7267 2.52058 35.1962 3.2417 35.5163 4.03535C35.8364 4.82899 36.0008 5.67959 36 6.53846V29.4615C36.0008 30.3204 35.8364 31.171 35.5163 31.9647C35.1962 32.7583 34.7267 33.4794 34.1346 34.0867C33.5424 34.694 32.8393 35.1756 32.0655 35.5039C31.2917 35.8322 30.4624 36.0008 29.625 36H6.375C5.5376 36.0008 4.70827 35.8322 3.93446 35.5039C3.16066 35.1756 2.45757 34.694 1.86544 34.0867C1.27331 33.4794 0.803757 32.7583 0.483663 31.9647C0.163569 31.171 -0.000786426 30.3204 2.82911e-06 29.4615V6.53846C-0.000786426 5.67959 0.163569 4.82899 0.483663 4.03535C0.803757 3.2417 1.27331 2.52058 1.86544 1.91327C2.45757 1.30595 3.16066 0.824367 3.93446 0.496065C4.70827 0.167763 5.5376 -0.00080659 6.375 2.90165e-06Z" fill="#000B1D"/>
<path d="M14.55 28.98C16.6211 28.98 18.3 27.3011 18.3 25.23V21.48H14.55C12.479 21.48 10.8 23.1589 10.8 25.23C10.8 27.3011 12.479 28.98 14.55 28.98Z" fill="#0ACF83"/>
<path d="M10.8 17.73C10.8 15.6589 12.479 13.98 14.55 13.98H18.3V21.48H14.55C12.479 21.48 10.8 19.8011 10.8 17.73Z" fill="#A259FF"/>
<path d="M10.8 10.23C10.8 8.15894 12.479 6.48001 14.55 6.48001H18.3V13.98H14.55C12.479 13.98 10.8 12.3011 10.8 10.23Z" fill="#F24E1E"/>
<path d="M18.3 6.48001H22.05C24.1211 6.48001 25.8 8.15894 25.8 10.23C25.8 12.3011 24.1211 13.98 22.05 13.98H18.3V6.48001Z" fill="#FF7262"/>
<path d="M25.8 17.73C25.8 19.8011 24.1211 21.48 22.05 21.48C19.979 21.48 18.3 19.8011 18.3 17.73C18.3 15.6589 19.979 13.98 22.05 13.98C24.1211 13.98 25.8 15.6589 25.8 17.73Z" fill="#1ABCFE"/>
</g>
<defs>
<clipPath id="clip0_155_123">
<rect width="36" height="36" fill="white"/>
</clipPath>
</defs>
</svg>
