<svg width="32" height="32" viewBox="0 0 32 32" fill="none" xmlns="http://www.w3.org/2000/svg">
<path fill-rule="evenodd" clip-rule="evenodd" d="M0 16.0001C0 7.16357 7.16344 0.00012207 16 0.00012207C24.8366 0.00012207 32 7.16357 32 16.0001C32 24.8367 24.8366 32.0001 16 32.0001C7.16344 32.0001 0 24.8367 0 16.0001ZM8.2 13.3001V24.0001H11.6V13.3001H8.2ZM8 9.90012C8 11.0001 8.8 11.8001 9.9 11.8001C11 11.8001 11.8 11.0001 11.8 9.90012C11.8 8.80013 11 8.00012 9.9 8.00012C8.9 8.00012 8 8.80013 8 9.90012ZM20.6 24.0001H23.8V17.4001C23.8 14.1001 21.8 13.0001 19.9 13.0001C18.2 13.0001 17 14.1001 16.7 14.8001V13.3001H13.5V24.0001H16.9V18.3001C16.9 16.8001 17.9 16.0001 18.9 16.0001C19.9 16.0001 20.6 16.5001 20.6 18.2001V24.0001Z" fill="#D9C5F8"/>
</svg>
