<svg width="36" height="36" viewBox="0 0 36 36" fill="none" xmlns="http://www.w3.org/2000/svg">
<rect width="36" height="36" rx="8" fill="#D9D9D9"/>
<path fill-rule="evenodd" clip-rule="evenodd" d="M21.2088 6.59675L8.72146 7.51565C7.71455 7.60278 7.36365 8.25919 7.36365 9.04612V22.6942C7.36365 23.3074 7.58238 23.8314 8.10837 24.532L11.0438 28.3377C11.526 28.9505 11.9642 29.0816 12.8849 29.0377L27.3863 28.1627C28.6128 28.0756 28.9636 27.5065 28.9636 26.5442V11.1898C28.9636 10.6924 28.7667 10.5487 28.186 10.1251C28.1541 10.1018 28.121 10.0776 28.0867 10.0525L24.1006 7.25298C23.1368 6.55336 22.7422 6.46533 21.2088 6.59675ZM13.35 11.1425C12.166 11.2224 11.897 11.2405 11.2247 10.6947L9.51488 9.33869C9.3405 9.16334 9.42796 8.9446 9.86577 8.90122L21.8709 8.02625C22.8784 7.93857 23.404 8.2891 23.7986 8.59516L25.8576 10.0826C25.9453 10.1262 26.164 10.3883 25.901 10.3883L13.5028 11.1322L13.35 11.1425ZM11.969 26.6173V13.5819C11.969 13.0134 12.1443 12.7507 12.6698 12.7066L26.9087 11.8757C27.3916 11.832 27.6103 12.1384 27.6103 12.7066V25.6545C27.6103 26.2236 27.5225 26.7054 26.7335 26.7488L13.1079 27.5366C12.3194 27.5799 11.969 27.3179 11.969 26.6173ZM25.4202 14.2812C25.5075 14.6753 25.4202 15.069 25.0251 15.1133L24.3686 15.244V24.8675C23.7986 25.1737 23.2729 25.3487 22.8349 25.3487C22.1337 25.3487 21.958 25.1298 21.4328 24.474L17.1385 17.7375V24.2553L18.4973 24.5617C18.4973 24.5617 18.4973 25.3487 17.401 25.3487L14.3786 25.5239C14.2908 25.3487 14.3786 24.9116 14.6852 24.824L15.4739 24.6056V15.9879L14.3788 15.9002C14.291 15.5061 14.5097 14.9379 15.1236 14.8938L18.3659 14.6754L22.8349 21.4997V15.4627L21.6955 15.3321C21.608 14.8503 21.958 14.5005 22.3962 14.4571L25.4202 14.2812Z" fill="black"/>
</svg>
